M48
; DRILL file {KiCad (5.1.9)-1} date 12/09/25 22:22:37
; FORMAT={-:-/ absolute / metric / decimal}
; #@! TF.CreationDate,2025-12-09T22:22:37+09:00
; #@! TF.GenerationSoftware,Kicad,Pcbnew,(5.1.9)-1
FMAT,2
METRIC
T1C0.300
T2C0.800
T3C1.000
T4C1.100
T5C1.500
T6C3.200
%
G90
G05
T1
X11.65Y94.575
X28.73Y58.436
X31.137Y76.883
X31.662Y62.861
X33.577Y87.478
X33.799Y86.189
X34.234Y83.111
X34.976Y84.197
X35.922Y119.776
X37.021Y60.926
X37.583Y62.125
X39.42Y124.75
X40.02Y57.337
X40.41Y65.594
X41.105Y88.592
X41.889Y127.238
X48.8Y63.421
X53.158Y78.361
X55.467Y129.343
X58.225Y56.186
X59.627Y63.842
X63.492Y129.264
X64.246Y103.668
X65.923Y122.071
X74.967Y98.02
X77.301Y36.584
X78.822Y36.034
X78.91Y87.193
X80.281Y86.601
X81.042Y128.431
X82.495Y115.285
X82.844Y126.316
X83.191Y114.022
X83.742Y110.756
X84.462Y75.643
X85.303Y115.33
X86.639Y129.409
X87.755Y129.665
X88.49Y63.363
X88.78Y119.982
X90.908Y70.219
X95.917Y66.165
X97.005Y63.028
X99.343Y79.69
X99.477Y63.326
X105.41Y87.86
X110.91Y75.091
X113.429Y70.175
T2
X5.08Y101.6
X5.08Y99.1
X5.08Y78.74
X5.08Y76.24
X5.08Y57.785
X5.08Y55.285
X5.08Y41.275
X5.08Y38.775
X8.255Y104.14
X8.255Y96.52
X8.255Y81.28
X8.255Y73.66
X8.255Y60.325
X8.255Y52.705
X8.255Y43.815
X8.255Y36.195
X10.795Y104.14
X10.795Y96.52
X10.795Y81.28
X10.795Y73.66
X10.795Y60.325
X10.795Y52.705
X10.795Y43.815
X10.795Y36.195
X13.335Y104.14
X13.335Y96.52
X13.335Y81.28
X13.335Y73.66
X13.335Y60.325
X13.335Y52.705
X13.335Y43.815
X13.335Y36.195
X15.875Y104.14
X15.875Y96.52
X15.875Y81.28
X15.875Y73.66
X15.875Y60.325
X15.875Y52.705
X15.875Y43.815
X15.875Y36.195
X18.415Y104.14
X18.415Y96.52
X18.415Y81.28
X18.415Y73.66
X18.415Y60.325
X18.415Y52.705
X18.415Y43.815
X18.415Y36.195
X20.955Y104.14
X20.955Y96.52
X20.955Y81.28
X20.955Y73.66
X20.955Y60.325
X20.955Y52.705
X20.955Y43.815
X20.955Y36.195
X23.495Y104.14
X23.495Y96.52
X23.495Y81.28
X23.495Y73.66
X23.495Y60.325
X23.495Y52.705
X23.495Y43.815
X23.495Y36.195
X26.035Y104.14
X26.035Y96.52
X26.035Y81.28
X26.035Y73.66
X26.035Y60.325
X26.035Y52.705
X26.035Y43.815
X26.035Y36.195
X28.575Y104.14
X28.575Y96.52
X28.575Y81.28
X28.575Y73.66
X31.115Y104.14
X31.115Y96.52
X31.115Y81.28
X31.115Y73.66
X34.29Y121.539
X34.29Y119.039
X36.83Y101.6
X36.83Y99.1
X36.83Y78.74
X36.83Y76.24
X36.83Y57.785
X36.83Y55.285
X40.005Y104.14
X40.005Y96.52
X40.005Y81.28
X40.005Y73.66
X40.005Y60.325
X40.005Y52.705
X42.545Y104.14
X42.545Y96.52
X42.545Y81.28
X42.545Y73.66
X42.545Y60.325
X42.545Y52.705
X45.085Y104.14
X45.085Y96.52
X45.085Y81.28
X45.085Y73.66
X45.085Y60.325
X45.085Y52.705
X47.625Y104.14
X47.625Y96.52
X47.625Y81.28
X47.625Y73.66
X47.625Y60.325
X47.625Y52.705
X50.165Y104.14
X50.165Y96.52
X50.165Y81.28
X50.165Y73.66
X50.165Y60.325
X50.165Y52.705
X52.705Y104.14
X52.705Y96.52
X52.705Y81.28
X52.705Y73.66
X52.705Y60.325
X52.705Y52.705
X55.245Y104.14
X55.245Y96.52
X55.245Y81.28
X55.245Y73.66
X55.245Y60.325
X55.245Y52.705
X57.785Y81.28
X57.785Y73.66
X57.785Y60.325
X57.785Y52.705
X63.5Y101.6
X63.5Y99.1
X63.5Y78.74
X63.5Y76.24
X66.675Y104.14
X66.675Y96.52
X66.675Y81.28
X66.675Y73.66
X69.215Y104.14
X69.215Y96.52
X69.215Y81.28
X69.215Y73.66
X71.755Y104.14
X71.755Y96.52
X71.755Y81.28
X71.755Y73.66
X74.295Y104.14
X74.295Y96.52
X74.295Y81.28
X74.295Y73.66
X76.835Y104.14
X76.835Y96.52
X76.835Y81.28
X76.835Y73.66
X76.835Y57.785
X76.835Y55.285
X79.375Y104.14
X79.375Y96.52
X79.375Y81.28
X79.375Y73.66
X80.01Y60.325
X80.01Y52.705
X81.915Y104.14
X81.915Y96.52
X81.915Y81.28
X81.915Y73.66
X82.55Y60.325
X82.55Y52.705
X84.455Y104.14
X84.455Y96.52
X84.455Y81.28
X84.455Y73.66
X85.09Y60.325
X85.09Y52.705
X87.63Y60.325
X87.63Y52.705
X89.535Y101.6
X89.535Y99.1
X89.535Y78.74
X89.535Y76.24
X89.535Y29.845
X89.535Y27.345
X90.17Y60.325
X90.17Y52.705
X92.71Y104.14
X92.71Y96.52
X92.71Y81.28
X92.71Y73.66
X92.71Y60.325
X92.71Y52.705
X92.71Y36.195
X92.71Y20.955
X95.25Y104.14
X95.25Y96.52
X95.25Y81.28
X95.25Y73.66
X95.25Y60.325
X95.25Y52.705
X95.25Y36.195
X95.25Y20.955
X97.79Y104.14
X97.79Y96.52
X97.79Y81.28
X97.79Y73.66
X97.79Y36.195
X97.79Y20.955
X100.33Y104.14
X100.33Y96.52
X100.33Y81.28
X100.33Y73.66
X100.33Y36.195
X100.33Y20.955
X102.87Y104.14
X102.87Y96.52
X102.87Y81.28
X102.87Y73.66
X102.87Y36.195
X102.87Y20.955
X105.41Y104.14
X105.41Y96.52
X105.41Y81.28
X105.41Y73.66
X105.41Y43.18
X105.41Y36.195
X105.41Y20.955
X107.95Y104.14
X107.95Y96.52
X107.95Y81.28
X107.95Y73.66
X107.95Y36.195
X107.95Y20.955
X110.49Y36.195
X110.49Y20.955
X111.125Y57.785
X111.125Y55.285
X113.03Y43.18
X113.03Y36.195
X113.03Y20.955
X113.665Y101.6
X113.665Y99.1
X113.665Y78.74
X113.665Y76.24
X114.3Y60.325
X114.3Y52.705
X115.57Y36.195
X115.57Y20.955
X116.84Y104.345
X116.84Y96.725
X116.84Y88.9
X116.84Y81.28
X116.84Y73.66
X116.84Y60.325
X116.84Y52.705
X118.11Y36.195
X118.11Y20.955
X119.38Y104.345
X119.38Y96.725
X119.38Y81.28
X119.38Y73.66
X119.38Y60.325
X119.38Y52.705
X120.65Y36.195
X120.65Y20.955
X121.92Y104.345
X121.92Y96.725
X121.92Y81.28
X121.92Y73.66
X121.92Y60.325
X121.92Y52.705
X123.19Y36.195
X123.19Y20.955
X124.46Y104.345
X124.46Y96.725
X124.46Y88.9
X124.46Y81.28
X124.46Y73.66
X124.46Y60.325
X124.46Y52.705
X125.73Y36.195
X125.73Y20.955
X127.0Y104.345
X127.0Y96.725
X127.0Y81.28
X127.0Y73.66
X127.0Y60.325
X127.0Y52.705
X128.27Y36.195
X128.27Y20.955
X129.54Y104.345
X129.54Y96.725
X129.54Y88.9
X129.54Y81.28
X129.54Y73.66
X129.54Y60.325
X129.54Y52.705
X130.81Y36.195
X130.81Y20.955
X132.04Y88.9
X132.08Y104.345
X132.08Y96.725
X132.08Y81.28
X132.08Y73.66
X132.08Y60.325
X132.08Y52.705
T3
X104.14Y120.015
X104.14Y117.475
X104.14Y114.935
X109.22Y120.015
X109.22Y117.475
X109.22Y114.935
T4
X63.5Y36.83
X63.5Y29.845
X73.66Y36.83
X73.66Y29.845
T5
X43.01Y18.415
X63.5Y18.415
T6
X5.0Y125.0
X5.0Y5.0
X132.0Y125.0
X132.0Y5.0
T0
M30
