G04 #@! TF.GenerationSoftware,KiCad,Pcbnew,(5.1.9)-1*
G04 #@! TF.CreationDate,2025-12-09T22:22:35+09:00*
G04 #@! TF.ProjectId,X1_EMM,58315f45-4d4d-42e6-9b69-6361645f7063,rev?*
G04 #@! TF.SameCoordinates,PX1997c20PYbac5f70*
G04 #@! TF.FileFunction,Legend,Top*
G04 #@! TF.FilePolarity,Positive*
%FSLAX46Y46*%
G04 Gerber Fmt 4.6, Leading zero omitted, Abs format (unit mm)*
G04 Created by KiCad (PCBNEW (5.1.9)-1) date 2025-12-09 22:22:35*
%MOMM*%
%LPD*%
G01*
G04 APERTURE LIST*
%ADD10C,0.150000*%
%ADD11C,0.300000*%
%ADD12C,0.500000*%
%ADD13C,0.120000*%
G04 APERTURE END LIST*
D10*
X111387142Y74207620D02*
X111482380Y74207620D01*
X111577619Y74160000D01*
X111625238Y74112381D01*
X111672857Y74017143D01*
X111720476Y73826667D01*
X111720476Y73588572D01*
X111672857Y73398096D01*
X111625238Y73302858D01*
X111577619Y73255239D01*
X111482380Y73207620D01*
X111387142Y73207620D01*
X111291904Y73255239D01*
X111244285Y73302858D01*
X111196666Y73398096D01*
X111149047Y73588572D01*
X111149047Y73826667D01*
X111196666Y74017143D01*
X111244285Y74112381D01*
X111291904Y74160000D01*
X111387142Y74207620D01*
X112149047Y73302858D02*
X112196666Y73255239D01*
X112149047Y73207620D01*
X112101428Y73255239D01*
X112149047Y73302858D01*
X112149047Y73207620D01*
X113149047Y73207620D02*
X112577619Y73207620D01*
X112863333Y73207620D02*
X112863333Y74207620D01*
X112768095Y74064762D01*
X112672857Y73969524D01*
X112577619Y73921905D01*
X114006190Y73874286D02*
X114006190Y73207620D01*
X113577619Y73874286D02*
X113577619Y73350477D01*
X113625238Y73255239D01*
X113720476Y73207620D01*
X113863333Y73207620D01*
X113958571Y73255239D01*
X114006190Y73302858D01*
X114815714Y73731429D02*
X114482380Y73731429D01*
X114482380Y73207620D02*
X114482380Y74207620D01*
X114958571Y74207620D01*
X110529761Y45267620D02*
X109958333Y45267620D01*
X110244047Y45267620D02*
X110244047Y46267620D01*
X110148809Y46124762D01*
X110053571Y46029524D01*
X109958333Y45981905D01*
X111148809Y46267620D02*
X111244047Y46267620D01*
X111339285Y46220000D01*
X111386904Y46172381D01*
X111434523Y46077143D01*
X111482142Y45886667D01*
X111482142Y45648572D01*
X111434523Y45458096D01*
X111386904Y45362858D01*
X111339285Y45315239D01*
X111244047Y45267620D01*
X111148809Y45267620D01*
X111053571Y45315239D01*
X111005952Y45362858D01*
X110958333Y45458096D01*
X110910714Y45648572D01*
X110910714Y45886667D01*
X110958333Y46077143D01*
X111005952Y46172381D01*
X111053571Y46220000D01*
X111148809Y46267620D01*
X111910714Y45267620D02*
X111910714Y46267620D01*
X112005952Y45648572D02*
X112291666Y45267620D01*
X112291666Y45934286D02*
X111910714Y45553334D01*
X128690952Y86812381D02*
X128738571Y86860000D01*
X128833809Y86907620D01*
X129071904Y86907620D01*
X129167142Y86860000D01*
X129214761Y86812381D01*
X129262380Y86717143D01*
X129262380Y86621905D01*
X129214761Y86479048D01*
X128643333Y85907620D01*
X129262380Y85907620D01*
X129643333Y86812381D02*
X129690952Y86860000D01*
X129786190Y86907620D01*
X130024285Y86907620D01*
X130119523Y86860000D01*
X130167142Y86812381D01*
X130214761Y86717143D01*
X130214761Y86621905D01*
X130167142Y86479048D01*
X129595714Y85907620D01*
X130214761Y85907620D01*
X130833809Y86907620D02*
X130929047Y86907620D01*
X131024285Y86860000D01*
X131071904Y86812381D01*
X131119523Y86717143D01*
X131167142Y86526667D01*
X131167142Y86288572D01*
X131119523Y86098096D01*
X131071904Y86002858D01*
X131024285Y85955239D01*
X130929047Y85907620D01*
X130833809Y85907620D01*
X130738571Y85955239D01*
X130690952Y86002858D01*
X130643333Y86098096D01*
X130595714Y86288572D01*
X130595714Y86526667D01*
X130643333Y86717143D01*
X130690952Y86812381D01*
X130738571Y86860000D01*
X130833809Y86907620D01*
X131595714Y86574286D02*
X131595714Y85574286D01*
X131595714Y86526667D02*
X131690952Y86574286D01*
X131881428Y86574286D01*
X131976666Y86526667D01*
X132024285Y86479048D01*
X132071904Y86383810D01*
X132071904Y86098096D01*
X132024285Y86002858D01*
X131976666Y85955239D01*
X131881428Y85907620D01*
X131690952Y85907620D01*
X131595714Y85955239D01*
X132833809Y86431429D02*
X132500476Y86431429D01*
X132500476Y85907620D02*
X132500476Y86907620D01*
X132976666Y86907620D01*
X121253333Y90987620D02*
X120681904Y90987620D01*
X120967619Y90987620D02*
X120967619Y91987620D01*
X120872380Y91844762D01*
X120777142Y91749524D01*
X120681904Y91701905D01*
X121872380Y91987620D02*
X121967619Y91987620D01*
X122062857Y91940000D01*
X122110476Y91892381D01*
X122158095Y91797143D01*
X122205714Y91606667D01*
X122205714Y91368572D01*
X122158095Y91178096D01*
X122110476Y91082858D01*
X122062857Y91035239D01*
X121967619Y90987620D01*
X121872380Y90987620D01*
X121777142Y91035239D01*
X121729523Y91082858D01*
X121681904Y91178096D01*
X121634285Y91368572D01*
X121634285Y91606667D01*
X121681904Y91797143D01*
X121729523Y91892381D01*
X121777142Y91940000D01*
X121872380Y91987620D01*
X122824761Y91987620D02*
X122920000Y91987620D01*
X123015238Y91940000D01*
X123062857Y91892381D01*
X123110476Y91797143D01*
X123158095Y91606667D01*
X123158095Y91368572D01*
X123110476Y91178096D01*
X123062857Y91082858D01*
X123015238Y91035239D01*
X122920000Y90987620D01*
X122824761Y90987620D01*
X122729523Y91035239D01*
X122681904Y91082858D01*
X122634285Y91178096D01*
X122586666Y91368572D01*
X122586666Y91606667D01*
X122634285Y91797143D01*
X122681904Y91892381D01*
X122729523Y91940000D01*
X122824761Y91987620D01*
X109172380Y112942620D02*
X109267619Y112942620D01*
X109362857Y112895000D01*
X109410476Y112847381D01*
X109458095Y112752143D01*
X109505714Y112561667D01*
X109505714Y112323572D01*
X109458095Y112133096D01*
X109410476Y112037858D01*
X109362857Y111990239D01*
X109267619Y111942620D01*
X109172380Y111942620D01*
X109077142Y111990239D01*
X109029523Y112037858D01*
X108981904Y112133096D01*
X108934285Y112323572D01*
X108934285Y112561667D01*
X108981904Y112752143D01*
X109029523Y112847381D01*
X109077142Y112895000D01*
X109172380Y112942620D01*
X104092380Y112942620D02*
X104187619Y112942620D01*
X104282857Y112895000D01*
X104330476Y112847381D01*
X104378095Y112752143D01*
X104425714Y112561667D01*
X104425714Y112323572D01*
X104378095Y112133096D01*
X104330476Y112037858D01*
X104282857Y111990239D01*
X104187619Y111942620D01*
X104092380Y111942620D01*
X103997142Y111990239D01*
X103949523Y112037858D01*
X103901904Y112133096D01*
X103854285Y112323572D01*
X103854285Y112561667D01*
X103901904Y112752143D01*
X103949523Y112847381D01*
X103997142Y112895000D01*
X104092380Y112942620D01*
X109505714Y122102620D02*
X108934285Y122102620D01*
X109220000Y122102620D02*
X109220000Y123102620D01*
X109124761Y122959762D01*
X109029523Y122864524D01*
X108934285Y122816905D01*
X104425714Y122102620D02*
X103854285Y122102620D01*
X104140000Y122102620D02*
X104140000Y123102620D01*
X104044761Y122959762D01*
X103949523Y122864524D01*
X103854285Y122816905D01*
D11*
X107791428Y124761667D02*
X108743809Y124761667D01*
X107600952Y124190239D02*
X108267619Y126190239D01*
X108934285Y124190239D01*
X109505714Y125999762D02*
X109600952Y126095000D01*
X109791428Y126190239D01*
X110267619Y126190239D01*
X110458095Y126095000D01*
X110553333Y125999762D01*
X110648571Y125809286D01*
X110648571Y125618810D01*
X110553333Y125333096D01*
X109410476Y124190239D01*
X110648571Y124190239D01*
X102711428Y124761667D02*
X103663809Y124761667D01*
X102520952Y124190239D02*
X103187619Y126190239D01*
X103854285Y124190239D01*
X104330476Y126190239D02*
X105568571Y126190239D01*
X104901904Y125428334D01*
X105187619Y125428334D01*
X105378095Y125333096D01*
X105473333Y125237858D01*
X105568571Y125047381D01*
X105568571Y124571191D01*
X105473333Y124380715D01*
X105378095Y124285477D01*
X105187619Y124190239D01*
X104616190Y124190239D01*
X104425714Y124285477D01*
X104330476Y124380715D01*
D10*
X108045714Y38282620D02*
X108045714Y39282620D01*
X108045714Y38806429D02*
X108617142Y38806429D01*
X108617142Y38282620D02*
X108617142Y39282620D01*
X109093333Y38282620D02*
X109093333Y39282620D01*
X109426666Y38568334D01*
X109760000Y39282620D01*
X109760000Y38282620D01*
X110664761Y39282620D02*
X110474285Y39282620D01*
X110379047Y39235000D01*
X110331428Y39187381D01*
X110236190Y39044524D01*
X110188571Y38854048D01*
X110188571Y38473096D01*
X110236190Y38377858D01*
X110283809Y38330239D01*
X110379047Y38282620D01*
X110569523Y38282620D01*
X110664761Y38330239D01*
X110712380Y38377858D01*
X110760000Y38473096D01*
X110760000Y38711191D01*
X110712380Y38806429D01*
X110664761Y38854048D01*
X110569523Y38901667D01*
X110379047Y38901667D01*
X110283809Y38854048D01*
X110236190Y38806429D01*
X110188571Y38711191D01*
X111140952Y39187381D02*
X111188571Y39235000D01*
X111283809Y39282620D01*
X111521904Y39282620D01*
X111617142Y39235000D01*
X111664761Y39187381D01*
X111712380Y39092143D01*
X111712380Y38996905D01*
X111664761Y38854048D01*
X111093333Y38282620D01*
X111712380Y38282620D01*
X112283809Y38854048D02*
X112188571Y38901667D01*
X112140952Y38949286D01*
X112093333Y39044524D01*
X112093333Y39092143D01*
X112140952Y39187381D01*
X112188571Y39235000D01*
X112283809Y39282620D01*
X112474285Y39282620D01*
X112569523Y39235000D01*
X112617142Y39187381D01*
X112664761Y39092143D01*
X112664761Y39044524D01*
X112617142Y38949286D01*
X112569523Y38901667D01*
X112474285Y38854048D01*
X112283809Y38854048D01*
X112188571Y38806429D01*
X112140952Y38758810D01*
X112093333Y38663572D01*
X112093333Y38473096D01*
X112140952Y38377858D01*
X112188571Y38330239D01*
X112283809Y38282620D01*
X112474285Y38282620D01*
X112569523Y38330239D01*
X112617142Y38377858D01*
X112664761Y38473096D01*
X112664761Y38663572D01*
X112617142Y38758810D01*
X112569523Y38806429D01*
X112474285Y38854048D01*
X113569523Y39282620D02*
X113093333Y39282620D01*
X113045714Y38806429D01*
X113093333Y38854048D01*
X113188571Y38901667D01*
X113426666Y38901667D01*
X113521904Y38854048D01*
X113569523Y38806429D01*
X113617142Y38711191D01*
X113617142Y38473096D01*
X113569523Y38377858D01*
X113521904Y38330239D01*
X113426666Y38282620D01*
X113188571Y38282620D01*
X113093333Y38330239D01*
X113045714Y38377858D01*
X114569523Y38282620D02*
X113998095Y38282620D01*
X114283809Y38282620D02*
X114283809Y39282620D01*
X114188571Y39139762D01*
X114093333Y39044524D01*
X113998095Y38996905D01*
X114950476Y39187381D02*
X114998095Y39235000D01*
X115093333Y39282620D01*
X115331428Y39282620D01*
X115426666Y39235000D01*
X115474285Y39187381D01*
X115521904Y39092143D01*
X115521904Y38996905D01*
X115474285Y38854048D01*
X114902857Y38282620D01*
X115521904Y38282620D01*
X67913333Y31932620D02*
X67341904Y31932620D01*
X67627619Y31932620D02*
X67627619Y32932620D01*
X67532380Y32789762D01*
X67437142Y32694524D01*
X67341904Y32646905D01*
X68294285Y31980239D02*
X68437142Y31932620D01*
X68675238Y31932620D01*
X68770476Y31980239D01*
X68818095Y32027858D01*
X68865714Y32123096D01*
X68865714Y32218334D01*
X68818095Y32313572D01*
X68770476Y32361191D01*
X68675238Y32408810D01*
X68484761Y32456429D01*
X68389523Y32504048D01*
X68341904Y32551667D01*
X68294285Y32646905D01*
X68294285Y32742143D01*
X68341904Y32837381D01*
X68389523Y32885000D01*
X68484761Y32932620D01*
X68722857Y32932620D01*
X68865714Y32885000D01*
X69722857Y32599286D02*
X69722857Y31932620D01*
X69484761Y32980239D02*
X69246666Y32265953D01*
X69865714Y32265953D01*
X68548333Y38917620D02*
X67976904Y38917620D01*
X68262619Y38917620D02*
X68262619Y39917620D01*
X68167380Y39774762D01*
X68072142Y39679524D01*
X67976904Y39631905D01*
X68929285Y38965239D02*
X69072142Y38917620D01*
X69310238Y38917620D01*
X69405476Y38965239D01*
X69453095Y39012858D01*
X69500714Y39108096D01*
X69500714Y39203334D01*
X69453095Y39298572D01*
X69405476Y39346191D01*
X69310238Y39393810D01*
X69119761Y39441429D01*
X69024523Y39489048D01*
X68976904Y39536667D01*
X68929285Y39631905D01*
X68929285Y39727143D01*
X68976904Y39822381D01*
X69024523Y39870000D01*
X69119761Y39917620D01*
X69357857Y39917620D01*
X69500714Y39870000D01*
X70357857Y39584286D02*
X70357857Y38917620D01*
X70119761Y39965239D02*
X69881666Y39250953D01*
X70500714Y39250953D01*
X18089761Y45902620D02*
X17613571Y45902620D01*
X17613571Y46902620D01*
X18375476Y45950239D02*
X18518333Y45902620D01*
X18756428Y45902620D01*
X18851666Y45950239D01*
X18899285Y45997858D01*
X18946904Y46093096D01*
X18946904Y46188334D01*
X18899285Y46283572D01*
X18851666Y46331191D01*
X18756428Y46378810D01*
X18565952Y46426429D01*
X18470714Y46474048D01*
X18423095Y46521667D01*
X18375476Y46616905D01*
X18375476Y46712143D01*
X18423095Y46807381D01*
X18470714Y46855000D01*
X18565952Y46902620D01*
X18804047Y46902620D01*
X18946904Y46855000D01*
X19899285Y45902620D02*
X19327857Y45902620D01*
X19613571Y45902620D02*
X19613571Y46902620D01*
X19518333Y46759762D01*
X19423095Y46664524D01*
X19327857Y46616905D01*
X20232619Y46902620D02*
X20851666Y46902620D01*
X20518333Y46521667D01*
X20661190Y46521667D01*
X20756428Y46474048D01*
X20804047Y46426429D01*
X20851666Y46331191D01*
X20851666Y46093096D01*
X20804047Y45997858D01*
X20756428Y45950239D01*
X20661190Y45902620D01*
X20375476Y45902620D01*
X20280238Y45950239D01*
X20232619Y45997858D01*
X21423095Y46474048D02*
X21327857Y46521667D01*
X21280238Y46569286D01*
X21232619Y46664524D01*
X21232619Y46712143D01*
X21280238Y46807381D01*
X21327857Y46855000D01*
X21423095Y46902620D01*
X21613571Y46902620D01*
X21708809Y46855000D01*
X21756428Y46807381D01*
X21804047Y46712143D01*
X21804047Y46664524D01*
X21756428Y46569286D01*
X21708809Y46521667D01*
X21613571Y46474048D01*
X21423095Y46474048D01*
X21327857Y46426429D01*
X21280238Y46378810D01*
X21232619Y46283572D01*
X21232619Y46093096D01*
X21280238Y45997858D01*
X21327857Y45950239D01*
X21423095Y45902620D01*
X21613571Y45902620D01*
X21708809Y45950239D01*
X21756428Y45997858D01*
X21804047Y46093096D01*
X21804047Y46283572D01*
X21756428Y46378810D01*
X21708809Y46426429D01*
X21613571Y46474048D01*
X123499761Y62412620D02*
X123023571Y62412620D01*
X123023571Y63412620D01*
X123785476Y62460239D02*
X123928333Y62412620D01*
X124166428Y62412620D01*
X124261666Y62460239D01*
X124309285Y62507858D01*
X124356904Y62603096D01*
X124356904Y62698334D01*
X124309285Y62793572D01*
X124261666Y62841191D01*
X124166428Y62888810D01*
X123975952Y62936429D01*
X123880714Y62984048D01*
X123833095Y63031667D01*
X123785476Y63126905D01*
X123785476Y63222143D01*
X123833095Y63317381D01*
X123880714Y63365000D01*
X123975952Y63412620D01*
X124214047Y63412620D01*
X124356904Y63365000D01*
X125309285Y62412620D02*
X124737857Y62412620D01*
X125023571Y62412620D02*
X125023571Y63412620D01*
X124928333Y63269762D01*
X124833095Y63174524D01*
X124737857Y63126905D01*
X125642619Y63412620D02*
X126261666Y63412620D01*
X125928333Y63031667D01*
X126071190Y63031667D01*
X126166428Y62984048D01*
X126214047Y62936429D01*
X126261666Y62841191D01*
X126261666Y62603096D01*
X126214047Y62507858D01*
X126166428Y62460239D01*
X126071190Y62412620D01*
X125785476Y62412620D01*
X125690238Y62460239D01*
X125642619Y62507858D01*
X126833095Y62984048D02*
X126737857Y63031667D01*
X126690238Y63079286D01*
X126642619Y63174524D01*
X126642619Y63222143D01*
X126690238Y63317381D01*
X126737857Y63365000D01*
X126833095Y63412620D01*
X127023571Y63412620D01*
X127118809Y63365000D01*
X127166428Y63317381D01*
X127214047Y63222143D01*
X127214047Y63174524D01*
X127166428Y63079286D01*
X127118809Y63031667D01*
X127023571Y62984048D01*
X126833095Y62984048D01*
X126737857Y62936429D01*
X126690238Y62888810D01*
X126642619Y62793572D01*
X126642619Y62603096D01*
X126690238Y62507858D01*
X126737857Y62460239D01*
X126833095Y62412620D01*
X127023571Y62412620D01*
X127118809Y62460239D01*
X127166428Y62507858D01*
X127214047Y62603096D01*
X127214047Y62793572D01*
X127166428Y62888810D01*
X127118809Y62936429D01*
X127023571Y62984048D01*
X87780952Y63047620D02*
X87304761Y63047620D01*
X87304761Y64047620D01*
X88066666Y63095239D02*
X88209523Y63047620D01*
X88447619Y63047620D01*
X88542857Y63095239D01*
X88590476Y63142858D01*
X88638095Y63238096D01*
X88638095Y63333334D01*
X88590476Y63428572D01*
X88542857Y63476191D01*
X88447619Y63523810D01*
X88257142Y63571429D01*
X88161904Y63619048D01*
X88114285Y63666667D01*
X88066666Y63761905D01*
X88066666Y63857143D01*
X88114285Y63952381D01*
X88161904Y64000000D01*
X88257142Y64047620D01*
X88495238Y64047620D01*
X88638095Y64000000D01*
X89590476Y63047620D02*
X89019047Y63047620D01*
X89304761Y63047620D02*
X89304761Y64047620D01*
X89209523Y63904762D01*
X89114285Y63809524D01*
X89019047Y63761905D01*
X90542857Y63047620D02*
X89971428Y63047620D01*
X90257142Y63047620D02*
X90257142Y64047620D01*
X90161904Y63904762D01*
X90066666Y63809524D01*
X89971428Y63761905D01*
X125245952Y83367620D02*
X124769761Y83367620D01*
X124769761Y84367620D01*
X125531666Y83415239D02*
X125674523Y83367620D01*
X125912619Y83367620D01*
X126007857Y83415239D01*
X126055476Y83462858D01*
X126103095Y83558096D01*
X126103095Y83653334D01*
X126055476Y83748572D01*
X126007857Y83796191D01*
X125912619Y83843810D01*
X125722142Y83891429D01*
X125626904Y83939048D01*
X125579285Y83986667D01*
X125531666Y84081905D01*
X125531666Y84177143D01*
X125579285Y84272381D01*
X125626904Y84320000D01*
X125722142Y84367620D01*
X125960238Y84367620D01*
X126103095Y84320000D01*
X127055476Y83367620D02*
X126484047Y83367620D01*
X126769761Y83367620D02*
X126769761Y84367620D01*
X126674523Y84224762D01*
X126579285Y84129524D01*
X126484047Y84081905D01*
X127912619Y84034286D02*
X127912619Y83367620D01*
X127674523Y84415239D02*
X127436428Y83700953D01*
X128055476Y83700953D01*
X100480952Y83367620D02*
X100004761Y83367620D01*
X100004761Y84367620D01*
X100766666Y83415239D02*
X100909523Y83367620D01*
X101147619Y83367620D01*
X101242857Y83415239D01*
X101290476Y83462858D01*
X101338095Y83558096D01*
X101338095Y83653334D01*
X101290476Y83748572D01*
X101242857Y83796191D01*
X101147619Y83843810D01*
X100957142Y83891429D01*
X100861904Y83939048D01*
X100814285Y83986667D01*
X100766666Y84081905D01*
X100766666Y84177143D01*
X100814285Y84272381D01*
X100861904Y84320000D01*
X100957142Y84367620D01*
X101195238Y84367620D01*
X101338095Y84320000D01*
X101671428Y84367620D02*
X102290476Y84367620D01*
X101957142Y83986667D01*
X102100000Y83986667D01*
X102195238Y83939048D01*
X102242857Y83891429D01*
X102290476Y83796191D01*
X102290476Y83558096D01*
X102242857Y83462858D01*
X102195238Y83415239D01*
X102100000Y83367620D01*
X101814285Y83367620D01*
X101719047Y83415239D01*
X101671428Y83462858D01*
X102909523Y84367620D02*
X103004761Y84367620D01*
X103100000Y84320000D01*
X103147619Y84272381D01*
X103195238Y84177143D01*
X103242857Y83986667D01*
X103242857Y83748572D01*
X103195238Y83558096D01*
X103147619Y83462858D01*
X103100000Y83415239D01*
X103004761Y83367620D01*
X102909523Y83367620D01*
X102814285Y83415239D01*
X102766666Y83462858D01*
X102719047Y83558096D01*
X102671428Y83748572D01*
X102671428Y83986667D01*
X102719047Y84177143D01*
X102766666Y84272381D01*
X102814285Y84320000D01*
X102909523Y84367620D01*
X20629761Y83367620D02*
X20153571Y83367620D01*
X20153571Y84367620D01*
X20915476Y83415239D02*
X21058333Y83367620D01*
X21296428Y83367620D01*
X21391666Y83415239D01*
X21439285Y83462858D01*
X21486904Y83558096D01*
X21486904Y83653334D01*
X21439285Y83748572D01*
X21391666Y83796191D01*
X21296428Y83843810D01*
X21105952Y83891429D01*
X21010714Y83939048D01*
X20963095Y83986667D01*
X20915476Y84081905D01*
X20915476Y84177143D01*
X20963095Y84272381D01*
X21010714Y84320000D01*
X21105952Y84367620D01*
X21344047Y84367620D01*
X21486904Y84320000D01*
X21867857Y84272381D02*
X21915476Y84320000D01*
X22010714Y84367620D01*
X22248809Y84367620D01*
X22344047Y84320000D01*
X22391666Y84272381D01*
X22439285Y84177143D01*
X22439285Y84081905D01*
X22391666Y83939048D01*
X21820238Y83367620D01*
X22439285Y83367620D01*
X23296428Y84034286D02*
X23296428Y83367620D01*
X23058333Y84415239D02*
X22820238Y83700953D01*
X23439285Y83700953D01*
X24296428Y84367620D02*
X23820238Y84367620D01*
X23772619Y83891429D01*
X23820238Y83939048D01*
X23915476Y83986667D01*
X24153571Y83986667D01*
X24248809Y83939048D01*
X24296428Y83891429D01*
X24344047Y83796191D01*
X24344047Y83558096D01*
X24296428Y83462858D01*
X24248809Y83415239D01*
X24153571Y83367620D01*
X23915476Y83367620D01*
X23820238Y83415239D01*
X23772619Y83462858D01*
X123340952Y106227620D02*
X122864761Y106227620D01*
X122864761Y107227620D01*
X123626666Y106275239D02*
X123769523Y106227620D01*
X124007619Y106227620D01*
X124102857Y106275239D01*
X124150476Y106322858D01*
X124198095Y106418096D01*
X124198095Y106513334D01*
X124150476Y106608572D01*
X124102857Y106656191D01*
X124007619Y106703810D01*
X123817142Y106751429D01*
X123721904Y106799048D01*
X123674285Y106846667D01*
X123626666Y106941905D01*
X123626666Y107037143D01*
X123674285Y107132381D01*
X123721904Y107180000D01*
X123817142Y107227620D01*
X124055238Y107227620D01*
X124198095Y107180000D01*
X124817142Y107227620D02*
X124912380Y107227620D01*
X125007619Y107180000D01*
X125055238Y107132381D01*
X125102857Y107037143D01*
X125150476Y106846667D01*
X125150476Y106608572D01*
X125102857Y106418096D01*
X125055238Y106322858D01*
X125007619Y106275239D01*
X124912380Y106227620D01*
X124817142Y106227620D01*
X124721904Y106275239D01*
X124674285Y106322858D01*
X124626666Y106418096D01*
X124579047Y106608572D01*
X124579047Y106846667D01*
X124626666Y107037143D01*
X124674285Y107132381D01*
X124721904Y107180000D01*
X124817142Y107227620D01*
X126007619Y106894286D02*
X126007619Y106227620D01*
X125769523Y107275239D02*
X125531428Y106560953D01*
X126150476Y106560953D01*
X16184761Y62412620D02*
X15708571Y62412620D01*
X15708571Y63412620D01*
X16470476Y62460239D02*
X16613333Y62412620D01*
X16851428Y62412620D01*
X16946666Y62460239D01*
X16994285Y62507858D01*
X17041904Y62603096D01*
X17041904Y62698334D01*
X16994285Y62793572D01*
X16946666Y62841191D01*
X16851428Y62888810D01*
X16660952Y62936429D01*
X16565714Y62984048D01*
X16518095Y63031667D01*
X16470476Y63126905D01*
X16470476Y63222143D01*
X16518095Y63317381D01*
X16565714Y63365000D01*
X16660952Y63412620D01*
X16899047Y63412620D01*
X17041904Y63365000D01*
X17994285Y62412620D02*
X17422857Y62412620D01*
X17708571Y62412620D02*
X17708571Y63412620D01*
X17613333Y63269762D01*
X17518095Y63174524D01*
X17422857Y63126905D01*
X18470476Y62412620D02*
X18660952Y62412620D01*
X18756190Y62460239D01*
X18803809Y62507858D01*
X18899047Y62650715D01*
X18946666Y62841191D01*
X18946666Y63222143D01*
X18899047Y63317381D01*
X18851428Y63365000D01*
X18756190Y63412620D01*
X18565714Y63412620D01*
X18470476Y63365000D01*
X18422857Y63317381D01*
X18375238Y63222143D01*
X18375238Y62984048D01*
X18422857Y62888810D01*
X18470476Y62841191D01*
X18565714Y62793572D01*
X18756190Y62793572D01*
X18851428Y62841191D01*
X18899047Y62888810D01*
X18946666Y62984048D01*
X19280000Y63412620D02*
X19899047Y63412620D01*
X19565714Y63031667D01*
X19708571Y63031667D01*
X19803809Y62984048D01*
X19851428Y62936429D01*
X19899047Y62841191D01*
X19899047Y62603096D01*
X19851428Y62507858D01*
X19803809Y62460239D01*
X19708571Y62412620D01*
X19422857Y62412620D01*
X19327619Y62460239D01*
X19280000Y62507858D01*
X47934761Y63047620D02*
X47458571Y63047620D01*
X47458571Y64047620D01*
X48220476Y63095239D02*
X48363333Y63047620D01*
X48601428Y63047620D01*
X48696666Y63095239D01*
X48744285Y63142858D01*
X48791904Y63238096D01*
X48791904Y63333334D01*
X48744285Y63428572D01*
X48696666Y63476191D01*
X48601428Y63523810D01*
X48410952Y63571429D01*
X48315714Y63619048D01*
X48268095Y63666667D01*
X48220476Y63761905D01*
X48220476Y63857143D01*
X48268095Y63952381D01*
X48315714Y64000000D01*
X48410952Y64047620D01*
X48649047Y64047620D01*
X48791904Y64000000D01*
X49744285Y63047620D02*
X49172857Y63047620D01*
X49458571Y63047620D02*
X49458571Y64047620D01*
X49363333Y63904762D01*
X49268095Y63809524D01*
X49172857Y63761905D01*
X50220476Y63047620D02*
X50410952Y63047620D01*
X50506190Y63095239D01*
X50553809Y63142858D01*
X50649047Y63285715D01*
X50696666Y63476191D01*
X50696666Y63857143D01*
X50649047Y63952381D01*
X50601428Y64000000D01*
X50506190Y64047620D01*
X50315714Y64047620D01*
X50220476Y64000000D01*
X50172857Y63952381D01*
X50125238Y63857143D01*
X50125238Y63619048D01*
X50172857Y63523810D01*
X50220476Y63476191D01*
X50315714Y63428572D01*
X50506190Y63428572D01*
X50601428Y63476191D01*
X50649047Y63523810D01*
X50696666Y63619048D01*
X51030000Y64047620D02*
X51649047Y64047620D01*
X51315714Y63666667D01*
X51458571Y63666667D01*
X51553809Y63619048D01*
X51601428Y63571429D01*
X51649047Y63476191D01*
X51649047Y63238096D01*
X51601428Y63142858D01*
X51553809Y63095239D01*
X51458571Y63047620D01*
X51172857Y63047620D01*
X51077619Y63095239D01*
X51030000Y63142858D01*
X47934761Y83367620D02*
X47458571Y83367620D01*
X47458571Y84367620D01*
X48220476Y83415239D02*
X48363333Y83367620D01*
X48601428Y83367620D01*
X48696666Y83415239D01*
X48744285Y83462858D01*
X48791904Y83558096D01*
X48791904Y83653334D01*
X48744285Y83748572D01*
X48696666Y83796191D01*
X48601428Y83843810D01*
X48410952Y83891429D01*
X48315714Y83939048D01*
X48268095Y83986667D01*
X48220476Y84081905D01*
X48220476Y84177143D01*
X48268095Y84272381D01*
X48315714Y84320000D01*
X48410952Y84367620D01*
X48649047Y84367620D01*
X48791904Y84320000D01*
X49744285Y83367620D02*
X49172857Y83367620D01*
X49458571Y83367620D02*
X49458571Y84367620D01*
X49363333Y84224762D01*
X49268095Y84129524D01*
X49172857Y84081905D01*
X50220476Y83367620D02*
X50410952Y83367620D01*
X50506190Y83415239D01*
X50553809Y83462858D01*
X50649047Y83605715D01*
X50696666Y83796191D01*
X50696666Y84177143D01*
X50649047Y84272381D01*
X50601428Y84320000D01*
X50506190Y84367620D01*
X50315714Y84367620D01*
X50220476Y84320000D01*
X50172857Y84272381D01*
X50125238Y84177143D01*
X50125238Y83939048D01*
X50172857Y83843810D01*
X50220476Y83796191D01*
X50315714Y83748572D01*
X50506190Y83748572D01*
X50601428Y83796191D01*
X50649047Y83843810D01*
X50696666Y83939048D01*
X51030000Y84367620D02*
X51649047Y84367620D01*
X51315714Y83986667D01*
X51458571Y83986667D01*
X51553809Y83939048D01*
X51601428Y83891429D01*
X51649047Y83796191D01*
X51649047Y83558096D01*
X51601428Y83462858D01*
X51553809Y83415239D01*
X51458571Y83367620D01*
X51172857Y83367620D01*
X51077619Y83415239D01*
X51030000Y83462858D01*
X74604761Y83367620D02*
X74128571Y83367620D01*
X74128571Y84367620D01*
X74890476Y83415239D02*
X75033333Y83367620D01*
X75271428Y83367620D01*
X75366666Y83415239D01*
X75414285Y83462858D01*
X75461904Y83558096D01*
X75461904Y83653334D01*
X75414285Y83748572D01*
X75366666Y83796191D01*
X75271428Y83843810D01*
X75080952Y83891429D01*
X74985714Y83939048D01*
X74938095Y83986667D01*
X74890476Y84081905D01*
X74890476Y84177143D01*
X74938095Y84272381D01*
X74985714Y84320000D01*
X75080952Y84367620D01*
X75319047Y84367620D01*
X75461904Y84320000D01*
X76414285Y83367620D02*
X75842857Y83367620D01*
X76128571Y83367620D02*
X76128571Y84367620D01*
X76033333Y84224762D01*
X75938095Y84129524D01*
X75842857Y84081905D01*
X76890476Y83367620D02*
X77080952Y83367620D01*
X77176190Y83415239D01*
X77223809Y83462858D01*
X77319047Y83605715D01*
X77366666Y83796191D01*
X77366666Y84177143D01*
X77319047Y84272381D01*
X77271428Y84320000D01*
X77176190Y84367620D01*
X76985714Y84367620D01*
X76890476Y84320000D01*
X76842857Y84272381D01*
X76795238Y84177143D01*
X76795238Y83939048D01*
X76842857Y83843810D01*
X76890476Y83796191D01*
X76985714Y83748572D01*
X77176190Y83748572D01*
X77271428Y83796191D01*
X77319047Y83843810D01*
X77366666Y83939048D01*
X77700000Y84367620D02*
X78319047Y84367620D01*
X77985714Y83986667D01*
X78128571Y83986667D01*
X78223809Y83939048D01*
X78271428Y83891429D01*
X78319047Y83796191D01*
X78319047Y83558096D01*
X78271428Y83462858D01*
X78223809Y83415239D01*
X78128571Y83367620D01*
X77842857Y83367620D01*
X77747619Y83415239D01*
X77700000Y83462858D01*
X46799761Y4087858D02*
X46752142Y4040239D01*
X46609285Y3992620D01*
X46514047Y3992620D01*
X46371190Y4040239D01*
X46275952Y4135477D01*
X46228333Y4230715D01*
X46180714Y4421191D01*
X46180714Y4564048D01*
X46228333Y4754524D01*
X46275952Y4849762D01*
X46371190Y4945000D01*
X46514047Y4992620D01*
X46609285Y4992620D01*
X46752142Y4945000D01*
X46799761Y4897381D01*
X47799761Y3992620D02*
X47466428Y4468810D01*
X47228333Y3992620D02*
X47228333Y4992620D01*
X47609285Y4992620D01*
X47704523Y4945000D01*
X47752142Y4897381D01*
X47799761Y4802143D01*
X47799761Y4659286D01*
X47752142Y4564048D01*
X47704523Y4516429D01*
X47609285Y4468810D01*
X47228333Y4468810D01*
X48180714Y4897381D02*
X48228333Y4945000D01*
X48323571Y4992620D01*
X48561666Y4992620D01*
X48656904Y4945000D01*
X48704523Y4897381D01*
X48752142Y4802143D01*
X48752142Y4706905D01*
X48704523Y4564048D01*
X48133095Y3992620D01*
X48752142Y3992620D01*
X49371190Y4992620D02*
X49466428Y4992620D01*
X49561666Y4945000D01*
X49609285Y4897381D01*
X49656904Y4802143D01*
X49704523Y4611667D01*
X49704523Y4373572D01*
X49656904Y4183096D01*
X49609285Y4087858D01*
X49561666Y4040239D01*
X49466428Y3992620D01*
X49371190Y3992620D01*
X49275952Y4040239D01*
X49228333Y4087858D01*
X49180714Y4183096D01*
X49133095Y4373572D01*
X49133095Y4611667D01*
X49180714Y4802143D01*
X49228333Y4897381D01*
X49275952Y4945000D01*
X49371190Y4992620D01*
X50037857Y4992620D02*
X50656904Y4992620D01*
X50323571Y4611667D01*
X50466428Y4611667D01*
X50561666Y4564048D01*
X50609285Y4516429D01*
X50656904Y4421191D01*
X50656904Y4183096D01*
X50609285Y4087858D01*
X50561666Y4040239D01*
X50466428Y3992620D01*
X50180714Y3992620D01*
X50085476Y4040239D01*
X50037857Y4087858D01*
X51037857Y4897381D02*
X51085476Y4945000D01*
X51180714Y4992620D01*
X51418809Y4992620D01*
X51514047Y4945000D01*
X51561666Y4897381D01*
X51609285Y4802143D01*
X51609285Y4706905D01*
X51561666Y4564048D01*
X50990238Y3992620D01*
X51609285Y3992620D01*
X86622142Y25312620D02*
X86717380Y25312620D01*
X86812619Y25265000D01*
X86860238Y25217381D01*
X86907857Y25122143D01*
X86955476Y24931667D01*
X86955476Y24693572D01*
X86907857Y24503096D01*
X86860238Y24407858D01*
X86812619Y24360239D01*
X86717380Y24312620D01*
X86622142Y24312620D01*
X86526904Y24360239D01*
X86479285Y24407858D01*
X86431666Y24503096D01*
X86384047Y24693572D01*
X86384047Y24931667D01*
X86431666Y25122143D01*
X86479285Y25217381D01*
X86526904Y25265000D01*
X86622142Y25312620D01*
X87384047Y24407858D02*
X87431666Y24360239D01*
X87384047Y24312620D01*
X87336428Y24360239D01*
X87384047Y24407858D01*
X87384047Y24312620D01*
X88384047Y24312620D02*
X87812619Y24312620D01*
X88098333Y24312620D02*
X88098333Y25312620D01*
X88003095Y25169762D01*
X87907857Y25074524D01*
X87812619Y25026905D01*
X89241190Y24979286D02*
X89241190Y24312620D01*
X88812619Y24979286D02*
X88812619Y24455477D01*
X88860238Y24360239D01*
X88955476Y24312620D01*
X89098333Y24312620D01*
X89193571Y24360239D01*
X89241190Y24407858D01*
X90050714Y24836429D02*
X89717380Y24836429D01*
X89717380Y24312620D02*
X89717380Y25312620D01*
X90193571Y25312620D01*
X2802142Y36107620D02*
X2897380Y36107620D01*
X2992619Y36060000D01*
X3040238Y36012381D01*
X3087857Y35917143D01*
X3135476Y35726667D01*
X3135476Y35488572D01*
X3087857Y35298096D01*
X3040238Y35202858D01*
X2992619Y35155239D01*
X2897380Y35107620D01*
X2802142Y35107620D01*
X2706904Y35155239D01*
X2659285Y35202858D01*
X2611666Y35298096D01*
X2564047Y35488572D01*
X2564047Y35726667D01*
X2611666Y35917143D01*
X2659285Y36012381D01*
X2706904Y36060000D01*
X2802142Y36107620D01*
X3564047Y35202858D02*
X3611666Y35155239D01*
X3564047Y35107620D01*
X3516428Y35155239D01*
X3564047Y35202858D01*
X3564047Y35107620D01*
X4564047Y35107620D02*
X3992619Y35107620D01*
X4278333Y35107620D02*
X4278333Y36107620D01*
X4183095Y35964762D01*
X4087857Y35869524D01*
X3992619Y35821905D01*
X5421190Y35774286D02*
X5421190Y35107620D01*
X4992619Y35774286D02*
X4992619Y35250477D01*
X5040238Y35155239D01*
X5135476Y35107620D01*
X5278333Y35107620D01*
X5373571Y35155239D01*
X5421190Y35202858D01*
X6230714Y35631429D02*
X5897380Y35631429D01*
X5897380Y35107620D02*
X5897380Y36107620D01*
X6373571Y36107620D01*
X19359761Y106227620D02*
X18883571Y106227620D01*
X18883571Y107227620D01*
X19645476Y106275239D02*
X19788333Y106227620D01*
X20026428Y106227620D01*
X20121666Y106275239D01*
X20169285Y106322858D01*
X20216904Y106418096D01*
X20216904Y106513334D01*
X20169285Y106608572D01*
X20121666Y106656191D01*
X20026428Y106703810D01*
X19835952Y106751429D01*
X19740714Y106799048D01*
X19693095Y106846667D01*
X19645476Y106941905D01*
X19645476Y107037143D01*
X19693095Y107132381D01*
X19740714Y107180000D01*
X19835952Y107227620D01*
X20074047Y107227620D01*
X20216904Y107180000D01*
X20597857Y107132381D02*
X20645476Y107180000D01*
X20740714Y107227620D01*
X20978809Y107227620D01*
X21074047Y107180000D01*
X21121666Y107132381D01*
X21169285Y107037143D01*
X21169285Y106941905D01*
X21121666Y106799048D01*
X20550238Y106227620D01*
X21169285Y106227620D01*
X22026428Y106894286D02*
X22026428Y106227620D01*
X21788333Y107275239D02*
X21550238Y106560953D01*
X22169285Y106560953D01*
X23026428Y107227620D02*
X22550238Y107227620D01*
X22502619Y106751429D01*
X22550238Y106799048D01*
X22645476Y106846667D01*
X22883571Y106846667D01*
X22978809Y106799048D01*
X23026428Y106751429D01*
X23074047Y106656191D01*
X23074047Y106418096D01*
X23026428Y106322858D01*
X22978809Y106275239D01*
X22883571Y106227620D01*
X22645476Y106227620D01*
X22550238Y106275239D01*
X22502619Y106322858D01*
X75874761Y106227620D02*
X75398571Y106227620D01*
X75398571Y107227620D01*
X76160476Y106275239D02*
X76303333Y106227620D01*
X76541428Y106227620D01*
X76636666Y106275239D01*
X76684285Y106322858D01*
X76731904Y106418096D01*
X76731904Y106513334D01*
X76684285Y106608572D01*
X76636666Y106656191D01*
X76541428Y106703810D01*
X76350952Y106751429D01*
X76255714Y106799048D01*
X76208095Y106846667D01*
X76160476Y106941905D01*
X76160476Y107037143D01*
X76208095Y107132381D01*
X76255714Y107180000D01*
X76350952Y107227620D01*
X76589047Y107227620D01*
X76731904Y107180000D01*
X77684285Y106227620D02*
X77112857Y106227620D01*
X77398571Y106227620D02*
X77398571Y107227620D01*
X77303333Y107084762D01*
X77208095Y106989524D01*
X77112857Y106941905D01*
X78160476Y106227620D02*
X78350952Y106227620D01*
X78446190Y106275239D01*
X78493809Y106322858D01*
X78589047Y106465715D01*
X78636666Y106656191D01*
X78636666Y107037143D01*
X78589047Y107132381D01*
X78541428Y107180000D01*
X78446190Y107227620D01*
X78255714Y107227620D01*
X78160476Y107180000D01*
X78112857Y107132381D01*
X78065238Y107037143D01*
X78065238Y106799048D01*
X78112857Y106703810D01*
X78160476Y106656191D01*
X78255714Y106608572D01*
X78446190Y106608572D01*
X78541428Y106656191D01*
X78589047Y106703810D01*
X78636666Y106799048D01*
X78970000Y107227620D02*
X79589047Y107227620D01*
X79255714Y106846667D01*
X79398571Y106846667D01*
X79493809Y106799048D01*
X79541428Y106751429D01*
X79589047Y106656191D01*
X79589047Y106418096D01*
X79541428Y106322858D01*
X79493809Y106275239D01*
X79398571Y106227620D01*
X79112857Y106227620D01*
X79017619Y106275239D01*
X78970000Y106322858D01*
X47775952Y106227620D02*
X47299761Y106227620D01*
X47299761Y107227620D01*
X48061666Y106275239D02*
X48204523Y106227620D01*
X48442619Y106227620D01*
X48537857Y106275239D01*
X48585476Y106322858D01*
X48633095Y106418096D01*
X48633095Y106513334D01*
X48585476Y106608572D01*
X48537857Y106656191D01*
X48442619Y106703810D01*
X48252142Y106751429D01*
X48156904Y106799048D01*
X48109285Y106846667D01*
X48061666Y106941905D01*
X48061666Y107037143D01*
X48109285Y107132381D01*
X48156904Y107180000D01*
X48252142Y107227620D01*
X48490238Y107227620D01*
X48633095Y107180000D01*
X48966428Y107227620D02*
X49585476Y107227620D01*
X49252142Y106846667D01*
X49395000Y106846667D01*
X49490238Y106799048D01*
X49537857Y106751429D01*
X49585476Y106656191D01*
X49585476Y106418096D01*
X49537857Y106322858D01*
X49490238Y106275239D01*
X49395000Y106227620D01*
X49109285Y106227620D01*
X49014047Y106275239D01*
X48966428Y106322858D01*
X50204523Y107227620D02*
X50299761Y107227620D01*
X50395000Y107180000D01*
X50442619Y107132381D01*
X50490238Y107037143D01*
X50537857Y106846667D01*
X50537857Y106608572D01*
X50490238Y106418096D01*
X50442619Y106322858D01*
X50395000Y106275239D01*
X50299761Y106227620D01*
X50204523Y106227620D01*
X50109285Y106275239D01*
X50061666Y106322858D01*
X50014047Y106418096D01*
X49966428Y106608572D01*
X49966428Y106846667D01*
X50014047Y107037143D01*
X50061666Y107132381D01*
X50109285Y107180000D01*
X50204523Y107227620D01*
X101115952Y106227620D02*
X100639761Y106227620D01*
X100639761Y107227620D01*
X101401666Y106275239D02*
X101544523Y106227620D01*
X101782619Y106227620D01*
X101877857Y106275239D01*
X101925476Y106322858D01*
X101973095Y106418096D01*
X101973095Y106513334D01*
X101925476Y106608572D01*
X101877857Y106656191D01*
X101782619Y106703810D01*
X101592142Y106751429D01*
X101496904Y106799048D01*
X101449285Y106846667D01*
X101401666Y106941905D01*
X101401666Y107037143D01*
X101449285Y107132381D01*
X101496904Y107180000D01*
X101592142Y107227620D01*
X101830238Y107227620D01*
X101973095Y107180000D01*
X102592142Y107227620D02*
X102687380Y107227620D01*
X102782619Y107180000D01*
X102830238Y107132381D01*
X102877857Y107037143D01*
X102925476Y106846667D01*
X102925476Y106608572D01*
X102877857Y106418096D01*
X102830238Y106322858D01*
X102782619Y106275239D01*
X102687380Y106227620D01*
X102592142Y106227620D01*
X102496904Y106275239D01*
X102449285Y106322858D01*
X102401666Y106418096D01*
X102354047Y106608572D01*
X102354047Y106846667D01*
X102401666Y107037143D01*
X102449285Y107132381D01*
X102496904Y107180000D01*
X102592142Y107227620D01*
X103782619Y106894286D02*
X103782619Y106227620D01*
X103544523Y107275239D02*
X103306428Y106560953D01*
X103925476Y106560953D01*
X87257142Y74207620D02*
X87352380Y74207620D01*
X87447619Y74160000D01*
X87495238Y74112381D01*
X87542857Y74017143D01*
X87590476Y73826667D01*
X87590476Y73588572D01*
X87542857Y73398096D01*
X87495238Y73302858D01*
X87447619Y73255239D01*
X87352380Y73207620D01*
X87257142Y73207620D01*
X87161904Y73255239D01*
X87114285Y73302858D01*
X87066666Y73398096D01*
X87019047Y73588572D01*
X87019047Y73826667D01*
X87066666Y74017143D01*
X87114285Y74112381D01*
X87161904Y74160000D01*
X87257142Y74207620D01*
X88019047Y73302858D02*
X88066666Y73255239D01*
X88019047Y73207620D01*
X87971428Y73255239D01*
X88019047Y73302858D01*
X88019047Y73207620D01*
X89019047Y73207620D02*
X88447619Y73207620D01*
X88733333Y73207620D02*
X88733333Y74207620D01*
X88638095Y74064762D01*
X88542857Y73969524D01*
X88447619Y73921905D01*
X89876190Y73874286D02*
X89876190Y73207620D01*
X89447619Y73874286D02*
X89447619Y73350477D01*
X89495238Y73255239D01*
X89590476Y73207620D01*
X89733333Y73207620D01*
X89828571Y73255239D01*
X89876190Y73302858D01*
X90685714Y73731429D02*
X90352380Y73731429D01*
X90352380Y73207620D02*
X90352380Y74207620D01*
X90828571Y74207620D01*
X61222142Y74207620D02*
X61317380Y74207620D01*
X61412619Y74160000D01*
X61460238Y74112381D01*
X61507857Y74017143D01*
X61555476Y73826667D01*
X61555476Y73588572D01*
X61507857Y73398096D01*
X61460238Y73302858D01*
X61412619Y73255239D01*
X61317380Y73207620D01*
X61222142Y73207620D01*
X61126904Y73255239D01*
X61079285Y73302858D01*
X61031666Y73398096D01*
X60984047Y73588572D01*
X60984047Y73826667D01*
X61031666Y74017143D01*
X61079285Y74112381D01*
X61126904Y74160000D01*
X61222142Y74207620D01*
X61984047Y73302858D02*
X62031666Y73255239D01*
X61984047Y73207620D01*
X61936428Y73255239D01*
X61984047Y73302858D01*
X61984047Y73207620D01*
X62984047Y73207620D02*
X62412619Y73207620D01*
X62698333Y73207620D02*
X62698333Y74207620D01*
X62603095Y74064762D01*
X62507857Y73969524D01*
X62412619Y73921905D01*
X63841190Y73874286D02*
X63841190Y73207620D01*
X63412619Y73874286D02*
X63412619Y73350477D01*
X63460238Y73255239D01*
X63555476Y73207620D01*
X63698333Y73207620D01*
X63793571Y73255239D01*
X63841190Y73302858D01*
X64650714Y73731429D02*
X64317380Y73731429D01*
X64317380Y73207620D02*
X64317380Y74207620D01*
X64793571Y74207620D01*
X111387142Y97067620D02*
X111482380Y97067620D01*
X111577619Y97020000D01*
X111625238Y96972381D01*
X111672857Y96877143D01*
X111720476Y96686667D01*
X111720476Y96448572D01*
X111672857Y96258096D01*
X111625238Y96162858D01*
X111577619Y96115239D01*
X111482380Y96067620D01*
X111387142Y96067620D01*
X111291904Y96115239D01*
X111244285Y96162858D01*
X111196666Y96258096D01*
X111149047Y96448572D01*
X111149047Y96686667D01*
X111196666Y96877143D01*
X111244285Y96972381D01*
X111291904Y97020000D01*
X111387142Y97067620D01*
X112149047Y96162858D02*
X112196666Y96115239D01*
X112149047Y96067620D01*
X112101428Y96115239D01*
X112149047Y96162858D01*
X112149047Y96067620D01*
X113149047Y96067620D02*
X112577619Y96067620D01*
X112863333Y96067620D02*
X112863333Y97067620D01*
X112768095Y96924762D01*
X112672857Y96829524D01*
X112577619Y96781905D01*
X114006190Y96734286D02*
X114006190Y96067620D01*
X113577619Y96734286D02*
X113577619Y96210477D01*
X113625238Y96115239D01*
X113720476Y96067620D01*
X113863333Y96067620D01*
X113958571Y96115239D01*
X114006190Y96162858D01*
X114815714Y96591429D02*
X114482380Y96591429D01*
X114482380Y96067620D02*
X114482380Y97067620D01*
X114958571Y97067620D01*
X34552142Y74207620D02*
X34647380Y74207620D01*
X34742619Y74160000D01*
X34790238Y74112381D01*
X34837857Y74017143D01*
X34885476Y73826667D01*
X34885476Y73588572D01*
X34837857Y73398096D01*
X34790238Y73302858D01*
X34742619Y73255239D01*
X34647380Y73207620D01*
X34552142Y73207620D01*
X34456904Y73255239D01*
X34409285Y73302858D01*
X34361666Y73398096D01*
X34314047Y73588572D01*
X34314047Y73826667D01*
X34361666Y74017143D01*
X34409285Y74112381D01*
X34456904Y74160000D01*
X34552142Y74207620D01*
X35314047Y73302858D02*
X35361666Y73255239D01*
X35314047Y73207620D01*
X35266428Y73255239D01*
X35314047Y73302858D01*
X35314047Y73207620D01*
X36314047Y73207620D02*
X35742619Y73207620D01*
X36028333Y73207620D02*
X36028333Y74207620D01*
X35933095Y74064762D01*
X35837857Y73969524D01*
X35742619Y73921905D01*
X37171190Y73874286D02*
X37171190Y73207620D01*
X36742619Y73874286D02*
X36742619Y73350477D01*
X36790238Y73255239D01*
X36885476Y73207620D01*
X37028333Y73207620D01*
X37123571Y73255239D01*
X37171190Y73302858D01*
X37980714Y73731429D02*
X37647380Y73731429D01*
X37647380Y73207620D02*
X37647380Y74207620D01*
X38123571Y74207620D01*
X108212142Y53252620D02*
X108307380Y53252620D01*
X108402619Y53205000D01*
X108450238Y53157381D01*
X108497857Y53062143D01*
X108545476Y52871667D01*
X108545476Y52633572D01*
X108497857Y52443096D01*
X108450238Y52347858D01*
X108402619Y52300239D01*
X108307380Y52252620D01*
X108212142Y52252620D01*
X108116904Y52300239D01*
X108069285Y52347858D01*
X108021666Y52443096D01*
X107974047Y52633572D01*
X107974047Y52871667D01*
X108021666Y53062143D01*
X108069285Y53157381D01*
X108116904Y53205000D01*
X108212142Y53252620D01*
X108974047Y52347858D02*
X109021666Y52300239D01*
X108974047Y52252620D01*
X108926428Y52300239D01*
X108974047Y52347858D01*
X108974047Y52252620D01*
X109974047Y52252620D02*
X109402619Y52252620D01*
X109688333Y52252620D02*
X109688333Y53252620D01*
X109593095Y53109762D01*
X109497857Y53014524D01*
X109402619Y52966905D01*
X110831190Y52919286D02*
X110831190Y52252620D01*
X110402619Y52919286D02*
X110402619Y52395477D01*
X110450238Y52300239D01*
X110545476Y52252620D01*
X110688333Y52252620D01*
X110783571Y52300239D01*
X110831190Y52347858D01*
X111640714Y52776429D02*
X111307380Y52776429D01*
X111307380Y52252620D02*
X111307380Y53252620D01*
X111783571Y53252620D01*
X2802142Y74207620D02*
X2897380Y74207620D01*
X2992619Y74160000D01*
X3040238Y74112381D01*
X3087857Y74017143D01*
X3135476Y73826667D01*
X3135476Y73588572D01*
X3087857Y73398096D01*
X3040238Y73302858D01*
X2992619Y73255239D01*
X2897380Y73207620D01*
X2802142Y73207620D01*
X2706904Y73255239D01*
X2659285Y73302858D01*
X2611666Y73398096D01*
X2564047Y73588572D01*
X2564047Y73826667D01*
X2611666Y74017143D01*
X2659285Y74112381D01*
X2706904Y74160000D01*
X2802142Y74207620D01*
X3564047Y73302858D02*
X3611666Y73255239D01*
X3564047Y73207620D01*
X3516428Y73255239D01*
X3564047Y73302858D01*
X3564047Y73207620D01*
X4564047Y73207620D02*
X3992619Y73207620D01*
X4278333Y73207620D02*
X4278333Y74207620D01*
X4183095Y74064762D01*
X4087857Y73969524D01*
X3992619Y73921905D01*
X5421190Y73874286D02*
X5421190Y73207620D01*
X4992619Y73874286D02*
X4992619Y73350477D01*
X5040238Y73255239D01*
X5135476Y73207620D01*
X5278333Y73207620D01*
X5373571Y73255239D01*
X5421190Y73302858D01*
X6230714Y73731429D02*
X5897380Y73731429D01*
X5897380Y73207620D02*
X5897380Y74207620D01*
X6373571Y74207620D01*
X87257142Y97067620D02*
X87352380Y97067620D01*
X87447619Y97020000D01*
X87495238Y96972381D01*
X87542857Y96877143D01*
X87590476Y96686667D01*
X87590476Y96448572D01*
X87542857Y96258096D01*
X87495238Y96162858D01*
X87447619Y96115239D01*
X87352380Y96067620D01*
X87257142Y96067620D01*
X87161904Y96115239D01*
X87114285Y96162858D01*
X87066666Y96258096D01*
X87019047Y96448572D01*
X87019047Y96686667D01*
X87066666Y96877143D01*
X87114285Y96972381D01*
X87161904Y97020000D01*
X87257142Y97067620D01*
X88019047Y96162858D02*
X88066666Y96115239D01*
X88019047Y96067620D01*
X87971428Y96115239D01*
X88019047Y96162858D01*
X88019047Y96067620D01*
X89019047Y96067620D02*
X88447619Y96067620D01*
X88733333Y96067620D02*
X88733333Y97067620D01*
X88638095Y96924762D01*
X88542857Y96829524D01*
X88447619Y96781905D01*
X89876190Y96734286D02*
X89876190Y96067620D01*
X89447619Y96734286D02*
X89447619Y96210477D01*
X89495238Y96115239D01*
X89590476Y96067620D01*
X89733333Y96067620D01*
X89828571Y96115239D01*
X89876190Y96162858D01*
X90685714Y96591429D02*
X90352380Y96591429D01*
X90352380Y96067620D02*
X90352380Y97067620D01*
X90828571Y97067620D01*
X34552142Y53252620D02*
X34647380Y53252620D01*
X34742619Y53205000D01*
X34790238Y53157381D01*
X34837857Y53062143D01*
X34885476Y52871667D01*
X34885476Y52633572D01*
X34837857Y52443096D01*
X34790238Y52347858D01*
X34742619Y52300239D01*
X34647380Y52252620D01*
X34552142Y52252620D01*
X34456904Y52300239D01*
X34409285Y52347858D01*
X34361666Y52443096D01*
X34314047Y52633572D01*
X34314047Y52871667D01*
X34361666Y53062143D01*
X34409285Y53157381D01*
X34456904Y53205000D01*
X34552142Y53252620D01*
X35314047Y52347858D02*
X35361666Y52300239D01*
X35314047Y52252620D01*
X35266428Y52300239D01*
X35314047Y52347858D01*
X35314047Y52252620D01*
X36314047Y52252620D02*
X35742619Y52252620D01*
X36028333Y52252620D02*
X36028333Y53252620D01*
X35933095Y53109762D01*
X35837857Y53014524D01*
X35742619Y52966905D01*
X37171190Y52919286D02*
X37171190Y52252620D01*
X36742619Y52919286D02*
X36742619Y52395477D01*
X36790238Y52300239D01*
X36885476Y52252620D01*
X37028333Y52252620D01*
X37123571Y52300239D01*
X37171190Y52347858D01*
X37980714Y52776429D02*
X37647380Y52776429D01*
X37647380Y52252620D02*
X37647380Y53252620D01*
X38123571Y53252620D01*
X2802142Y97067620D02*
X2897380Y97067620D01*
X2992619Y97020000D01*
X3040238Y96972381D01*
X3087857Y96877143D01*
X3135476Y96686667D01*
X3135476Y96448572D01*
X3087857Y96258096D01*
X3040238Y96162858D01*
X2992619Y96115239D01*
X2897380Y96067620D01*
X2802142Y96067620D01*
X2706904Y96115239D01*
X2659285Y96162858D01*
X2611666Y96258096D01*
X2564047Y96448572D01*
X2564047Y96686667D01*
X2611666Y96877143D01*
X2659285Y96972381D01*
X2706904Y97020000D01*
X2802142Y97067620D01*
X3564047Y96162858D02*
X3611666Y96115239D01*
X3564047Y96067620D01*
X3516428Y96115239D01*
X3564047Y96162858D01*
X3564047Y96067620D01*
X4564047Y96067620D02*
X3992619Y96067620D01*
X4278333Y96067620D02*
X4278333Y97067620D01*
X4183095Y96924762D01*
X4087857Y96829524D01*
X3992619Y96781905D01*
X5421190Y96734286D02*
X5421190Y96067620D01*
X4992619Y96734286D02*
X4992619Y96210477D01*
X5040238Y96115239D01*
X5135476Y96067620D01*
X5278333Y96067620D01*
X5373571Y96115239D01*
X5421190Y96162858D01*
X6230714Y96591429D02*
X5897380Y96591429D01*
X5897380Y96067620D02*
X5897380Y97067620D01*
X6373571Y97067620D01*
X34552142Y96432620D02*
X34647380Y96432620D01*
X34742619Y96385000D01*
X34790238Y96337381D01*
X34837857Y96242143D01*
X34885476Y96051667D01*
X34885476Y95813572D01*
X34837857Y95623096D01*
X34790238Y95527858D01*
X34742619Y95480239D01*
X34647380Y95432620D01*
X34552142Y95432620D01*
X34456904Y95480239D01*
X34409285Y95527858D01*
X34361666Y95623096D01*
X34314047Y95813572D01*
X34314047Y96051667D01*
X34361666Y96242143D01*
X34409285Y96337381D01*
X34456904Y96385000D01*
X34552142Y96432620D01*
X35314047Y95527858D02*
X35361666Y95480239D01*
X35314047Y95432620D01*
X35266428Y95480239D01*
X35314047Y95527858D01*
X35314047Y95432620D01*
X36314047Y95432620D02*
X35742619Y95432620D01*
X36028333Y95432620D02*
X36028333Y96432620D01*
X35933095Y96289762D01*
X35837857Y96194524D01*
X35742619Y96146905D01*
X37171190Y96099286D02*
X37171190Y95432620D01*
X36742619Y96099286D02*
X36742619Y95575477D01*
X36790238Y95480239D01*
X36885476Y95432620D01*
X37028333Y95432620D01*
X37123571Y95480239D01*
X37171190Y95527858D01*
X37980714Y95956429D02*
X37647380Y95956429D01*
X37647380Y95432620D02*
X37647380Y96432620D01*
X38123571Y96432620D01*
X61222142Y97067620D02*
X61317380Y97067620D01*
X61412619Y97020000D01*
X61460238Y96972381D01*
X61507857Y96877143D01*
X61555476Y96686667D01*
X61555476Y96448572D01*
X61507857Y96258096D01*
X61460238Y96162858D01*
X61412619Y96115239D01*
X61317380Y96067620D01*
X61222142Y96067620D01*
X61126904Y96115239D01*
X61079285Y96162858D01*
X61031666Y96258096D01*
X60984047Y96448572D01*
X60984047Y96686667D01*
X61031666Y96877143D01*
X61079285Y96972381D01*
X61126904Y97020000D01*
X61222142Y97067620D01*
X61984047Y96162858D02*
X62031666Y96115239D01*
X61984047Y96067620D01*
X61936428Y96115239D01*
X61984047Y96162858D01*
X61984047Y96067620D01*
X62984047Y96067620D02*
X62412619Y96067620D01*
X62698333Y96067620D02*
X62698333Y97067620D01*
X62603095Y96924762D01*
X62507857Y96829524D01*
X62412619Y96781905D01*
X63841190Y96734286D02*
X63841190Y96067620D01*
X63412619Y96734286D02*
X63412619Y96210477D01*
X63460238Y96115239D01*
X63555476Y96067620D01*
X63698333Y96067620D01*
X63793571Y96115239D01*
X63841190Y96162858D01*
X64650714Y96591429D02*
X64317380Y96591429D01*
X64317380Y96067620D02*
X64317380Y97067620D01*
X64793571Y97067620D01*
X73922142Y52617620D02*
X74017380Y52617620D01*
X74112619Y52570000D01*
X74160238Y52522381D01*
X74207857Y52427143D01*
X74255476Y52236667D01*
X74255476Y51998572D01*
X74207857Y51808096D01*
X74160238Y51712858D01*
X74112619Y51665239D01*
X74017380Y51617620D01*
X73922142Y51617620D01*
X73826904Y51665239D01*
X73779285Y51712858D01*
X73731666Y51808096D01*
X73684047Y51998572D01*
X73684047Y52236667D01*
X73731666Y52427143D01*
X73779285Y52522381D01*
X73826904Y52570000D01*
X73922142Y52617620D01*
X74684047Y51712858D02*
X74731666Y51665239D01*
X74684047Y51617620D01*
X74636428Y51665239D01*
X74684047Y51712858D01*
X74684047Y51617620D01*
X75684047Y51617620D02*
X75112619Y51617620D01*
X75398333Y51617620D02*
X75398333Y52617620D01*
X75303095Y52474762D01*
X75207857Y52379524D01*
X75112619Y52331905D01*
X76541190Y52284286D02*
X76541190Y51617620D01*
X76112619Y52284286D02*
X76112619Y51760477D01*
X76160238Y51665239D01*
X76255476Y51617620D01*
X76398333Y51617620D01*
X76493571Y51665239D01*
X76541190Y51712858D01*
X77350714Y52141429D02*
X77017380Y52141429D01*
X77017380Y51617620D02*
X77017380Y52617620D01*
X77493571Y52617620D01*
X2802142Y53252620D02*
X2897380Y53252620D01*
X2992619Y53205000D01*
X3040238Y53157381D01*
X3087857Y53062143D01*
X3135476Y52871667D01*
X3135476Y52633572D01*
X3087857Y52443096D01*
X3040238Y52347858D01*
X2992619Y52300239D01*
X2897380Y52252620D01*
X2802142Y52252620D01*
X2706904Y52300239D01*
X2659285Y52347858D01*
X2611666Y52443096D01*
X2564047Y52633572D01*
X2564047Y52871667D01*
X2611666Y53062143D01*
X2659285Y53157381D01*
X2706904Y53205000D01*
X2802142Y53252620D01*
X3564047Y52347858D02*
X3611666Y52300239D01*
X3564047Y52252620D01*
X3516428Y52300239D01*
X3564047Y52347858D01*
X3564047Y52252620D01*
X4564047Y52252620D02*
X3992619Y52252620D01*
X4278333Y52252620D02*
X4278333Y53252620D01*
X4183095Y53109762D01*
X4087857Y53014524D01*
X3992619Y52966905D01*
X5421190Y52919286D02*
X5421190Y52252620D01*
X4992619Y52919286D02*
X4992619Y52395477D01*
X5040238Y52300239D01*
X5135476Y52252620D01*
X5278333Y52252620D01*
X5373571Y52300239D01*
X5421190Y52347858D01*
X6230714Y52776429D02*
X5897380Y52776429D01*
X5897380Y52252620D02*
X5897380Y53252620D01*
X6373571Y53252620D01*
X32742380Y115752620D02*
X32170952Y115752620D01*
X32456666Y115752620D02*
X32456666Y116752620D01*
X32361428Y116609762D01*
X32266190Y116514524D01*
X32170952Y116466905D01*
X33361428Y116752620D02*
X33456666Y116752620D01*
X33551904Y116705000D01*
X33599523Y116657381D01*
X33647142Y116562143D01*
X33694761Y116371667D01*
X33694761Y116133572D01*
X33647142Y115943096D01*
X33599523Y115847858D01*
X33551904Y115800239D01*
X33456666Y115752620D01*
X33361428Y115752620D01*
X33266190Y115800239D01*
X33218571Y115847858D01*
X33170952Y115943096D01*
X33123333Y116133572D01*
X33123333Y116371667D01*
X33170952Y116562143D01*
X33218571Y116657381D01*
X33266190Y116705000D01*
X33361428Y116752620D01*
X34313809Y116752620D02*
X34409047Y116752620D01*
X34504285Y116705000D01*
X34551904Y116657381D01*
X34599523Y116562143D01*
X34647142Y116371667D01*
X34647142Y116133572D01*
X34599523Y115943096D01*
X34551904Y115847858D01*
X34504285Y115800239D01*
X34409047Y115752620D01*
X34313809Y115752620D01*
X34218571Y115800239D01*
X34170952Y115847858D01*
X34123333Y115943096D01*
X34075714Y116133572D01*
X34075714Y116371667D01*
X34123333Y116562143D01*
X34170952Y116657381D01*
X34218571Y116705000D01*
X34313809Y116752620D01*
X35504285Y116419286D02*
X35504285Y115752620D01*
X35075714Y116419286D02*
X35075714Y115895477D01*
X35123333Y115800239D01*
X35218571Y115752620D01*
X35361428Y115752620D01*
X35456666Y115800239D01*
X35504285Y115847858D01*
X36313809Y116276429D02*
X35980476Y116276429D01*
X35980476Y115752620D02*
X35980476Y116752620D01*
X36456666Y116752620D01*
D12*
X83527857Y8469286D02*
X84527857Y8469286D01*
X84956428Y6897858D02*
X83527857Y6897858D01*
X83527857Y9897858D01*
X84956428Y9897858D01*
X86242142Y6897858D02*
X86242142Y9897858D01*
X87242142Y7755000D01*
X88242142Y9897858D01*
X88242142Y6897858D01*
X89670714Y6897858D02*
X89670714Y9897858D01*
X90670714Y7755000D01*
X91670714Y9897858D01*
X91670714Y6897858D01*
X94956428Y8897858D02*
X96099285Y8897858D01*
X95385000Y6897858D02*
X95385000Y9469286D01*
X95527857Y9755000D01*
X95813571Y9897858D01*
X96099285Y9897858D01*
X97527857Y6897858D02*
X97242142Y7040715D01*
X97099285Y7183572D01*
X96956428Y7469286D01*
X96956428Y8326429D01*
X97099285Y8612143D01*
X97242142Y8755000D01*
X97527857Y8897858D01*
X97956428Y8897858D01*
X98242142Y8755000D01*
X98385000Y8612143D01*
X98527857Y8326429D01*
X98527857Y7469286D01*
X98385000Y7183572D01*
X98242142Y7040715D01*
X97956428Y6897858D01*
X97527857Y6897858D01*
X99813571Y6897858D02*
X99813571Y8897858D01*
X99813571Y8326429D02*
X99956428Y8612143D01*
X100099285Y8755000D01*
X100385000Y8897858D01*
X100670714Y8897858D01*
X103670714Y9897858D02*
X105670714Y6897858D01*
X105670714Y9897858D02*
X103670714Y6897858D01*
X108385000Y6897858D02*
X106670714Y6897858D01*
X107527857Y6897858D02*
X107527857Y9897858D01*
X107242142Y9469286D01*
X106956428Y9183572D01*
X106670714Y9040715D01*
D13*
X36910000Y120289000D02*
G75*
G03*
X36910000Y120289000I-2620000J0D01*
G01*
X36870000Y120289000D02*
X31710000Y120289000D01*
X36870000Y120249000D02*
X31710000Y120249000D01*
X36869000Y120209000D02*
X31711000Y120209000D01*
X36868000Y120169000D02*
X31712000Y120169000D01*
X36866000Y120129000D02*
X31714000Y120129000D01*
X36863000Y120089000D02*
X31717000Y120089000D01*
X36859000Y120049000D02*
X35330000Y120049000D01*
X33250000Y120049000D02*
X31721000Y120049000D01*
X36855000Y120009000D02*
X35330000Y120009000D01*
X33250000Y120009000D02*
X31725000Y120009000D01*
X36851000Y119969000D02*
X35330000Y119969000D01*
X33250000Y119969000D02*
X31729000Y119969000D01*
X36846000Y119929000D02*
X35330000Y119929000D01*
X33250000Y119929000D02*
X31734000Y119929000D01*
X36840000Y119889000D02*
X35330000Y119889000D01*
X33250000Y119889000D02*
X31740000Y119889000D01*
X36833000Y119849000D02*
X35330000Y119849000D01*
X33250000Y119849000D02*
X31747000Y119849000D01*
X36826000Y119809000D02*
X35330000Y119809000D01*
X33250000Y119809000D02*
X31754000Y119809000D01*
X36818000Y119769000D02*
X35330000Y119769000D01*
X33250000Y119769000D02*
X31762000Y119769000D01*
X36810000Y119729000D02*
X35330000Y119729000D01*
X33250000Y119729000D02*
X31770000Y119729000D01*
X36801000Y119689000D02*
X35330000Y119689000D01*
X33250000Y119689000D02*
X31779000Y119689000D01*
X36791000Y119649000D02*
X35330000Y119649000D01*
X33250000Y119649000D02*
X31789000Y119649000D01*
X36781000Y119609000D02*
X35330000Y119609000D01*
X33250000Y119609000D02*
X31799000Y119609000D01*
X36770000Y119568000D02*
X35330000Y119568000D01*
X33250000Y119568000D02*
X31810000Y119568000D01*
X36758000Y119528000D02*
X35330000Y119528000D01*
X33250000Y119528000D02*
X31822000Y119528000D01*
X36745000Y119488000D02*
X35330000Y119488000D01*
X33250000Y119488000D02*
X31835000Y119488000D01*
X36732000Y119448000D02*
X35330000Y119448000D01*
X33250000Y119448000D02*
X31848000Y119448000D01*
X36718000Y119408000D02*
X35330000Y119408000D01*
X33250000Y119408000D02*
X31862000Y119408000D01*
X36704000Y119368000D02*
X35330000Y119368000D01*
X33250000Y119368000D02*
X31876000Y119368000D01*
X36688000Y119328000D02*
X35330000Y119328000D01*
X33250000Y119328000D02*
X31892000Y119328000D01*
X36672000Y119288000D02*
X35330000Y119288000D01*
X33250000Y119288000D02*
X31908000Y119288000D01*
X36655000Y119248000D02*
X35330000Y119248000D01*
X33250000Y119248000D02*
X31925000Y119248000D01*
X36638000Y119208000D02*
X35330000Y119208000D01*
X33250000Y119208000D02*
X31942000Y119208000D01*
X36619000Y119168000D02*
X35330000Y119168000D01*
X33250000Y119168000D02*
X31961000Y119168000D01*
X36600000Y119128000D02*
X35330000Y119128000D01*
X33250000Y119128000D02*
X31980000Y119128000D01*
X36580000Y119088000D02*
X35330000Y119088000D01*
X33250000Y119088000D02*
X32000000Y119088000D01*
X36558000Y119048000D02*
X35330000Y119048000D01*
X33250000Y119048000D02*
X32022000Y119048000D01*
X36537000Y119008000D02*
X35330000Y119008000D01*
X33250000Y119008000D02*
X32043000Y119008000D01*
X36514000Y118968000D02*
X35330000Y118968000D01*
X33250000Y118968000D02*
X32066000Y118968000D01*
X36490000Y118928000D02*
X35330000Y118928000D01*
X33250000Y118928000D02*
X32090000Y118928000D01*
X36465000Y118888000D02*
X35330000Y118888000D01*
X33250000Y118888000D02*
X32115000Y118888000D01*
X36439000Y118848000D02*
X35330000Y118848000D01*
X33250000Y118848000D02*
X32141000Y118848000D01*
X36412000Y118808000D02*
X35330000Y118808000D01*
X33250000Y118808000D02*
X32168000Y118808000D01*
X36385000Y118768000D02*
X35330000Y118768000D01*
X33250000Y118768000D02*
X32195000Y118768000D01*
X36355000Y118728000D02*
X35330000Y118728000D01*
X33250000Y118728000D02*
X32225000Y118728000D01*
X36325000Y118688000D02*
X35330000Y118688000D01*
X33250000Y118688000D02*
X32255000Y118688000D01*
X36294000Y118648000D02*
X35330000Y118648000D01*
X33250000Y118648000D02*
X32286000Y118648000D01*
X36261000Y118608000D02*
X35330000Y118608000D01*
X33250000Y118608000D02*
X32319000Y118608000D01*
X36227000Y118568000D02*
X35330000Y118568000D01*
X33250000Y118568000D02*
X32353000Y118568000D01*
X36191000Y118528000D02*
X35330000Y118528000D01*
X33250000Y118528000D02*
X32389000Y118528000D01*
X36154000Y118488000D02*
X35330000Y118488000D01*
X33250000Y118488000D02*
X32426000Y118488000D01*
X36116000Y118448000D02*
X35330000Y118448000D01*
X33250000Y118448000D02*
X32464000Y118448000D01*
X36075000Y118408000D02*
X35330000Y118408000D01*
X33250000Y118408000D02*
X32505000Y118408000D01*
X36033000Y118368000D02*
X35330000Y118368000D01*
X33250000Y118368000D02*
X32547000Y118368000D01*
X35989000Y118328000D02*
X35330000Y118328000D01*
X33250000Y118328000D02*
X32591000Y118328000D01*
X35943000Y118288000D02*
X35330000Y118288000D01*
X33250000Y118288000D02*
X32637000Y118288000D01*
X35895000Y118248000D02*
X35330000Y118248000D01*
X33250000Y118248000D02*
X32685000Y118248000D01*
X35844000Y118208000D02*
X35330000Y118208000D01*
X33250000Y118208000D02*
X32736000Y118208000D01*
X35790000Y118168000D02*
X35330000Y118168000D01*
X33250000Y118168000D02*
X32790000Y118168000D01*
X35733000Y118128000D02*
X35330000Y118128000D01*
X33250000Y118128000D02*
X32847000Y118128000D01*
X35673000Y118088000D02*
X35330000Y118088000D01*
X33250000Y118088000D02*
X32907000Y118088000D01*
X35609000Y118048000D02*
X35330000Y118048000D01*
X33250000Y118048000D02*
X32971000Y118048000D01*
X35541000Y118008000D02*
X35330000Y118008000D01*
X33250000Y118008000D02*
X33039000Y118008000D01*
X35468000Y117968000D02*
X33112000Y117968000D01*
X35388000Y117928000D02*
X33192000Y117928000D01*
X35301000Y117888000D02*
X33279000Y117888000D01*
X35205000Y117848000D02*
X33375000Y117848000D01*
X35095000Y117808000D02*
X33485000Y117808000D01*
X34967000Y117768000D02*
X33613000Y117768000D01*
X34808000Y117728000D02*
X33772000Y117728000D01*
X34574000Y117688000D02*
X34006000Y117688000D01*
X35765000Y123093775D02*
X35765000Y122593775D01*
X36015000Y122843775D02*
X35515000Y122843775D01*
X65700000Y21415000D02*
X60000000Y21415000D01*
X65700000Y21415000D02*
X65700000Y15415000D01*
X65700000Y15415000D02*
X60000000Y15415000D01*
X36804329Y18369719D02*
G75*
G02*
X59250000Y21915000I11495671J45281D01*
G01*
X59248246Y21941384D02*
G75*
G03*
X60000000Y21415000I751754J273616D01*
G01*
X36804329Y18460281D02*
G75*
G03*
X59250000Y14915000I11495671J-45281D01*
G01*
X59248246Y14888616D02*
G75*
G02*
X60000000Y15415000I751754J-273616D01*
G01*
X4415000Y98230000D02*
X3710000Y98230000D01*
X6450000Y98230000D02*
X5745000Y98230000D01*
X4415000Y102470000D02*
X3710000Y102470000D01*
X6450000Y102470000D02*
X5745000Y102470000D01*
X3710000Y102470000D02*
X3710000Y98230000D01*
X6450000Y102470000D02*
X6450000Y98230000D01*
X132910000Y88235000D02*
X132910000Y87530000D01*
X132910000Y90270000D02*
X132910000Y89565000D01*
X128670000Y88235000D02*
X128670000Y87530000D01*
X128670000Y90270000D02*
X128670000Y89565000D01*
X128670000Y87530000D02*
X132910000Y87530000D01*
X128670000Y90270000D02*
X132910000Y90270000D01*
X38200000Y79610000D02*
X38200000Y75370000D01*
X35460000Y79610000D02*
X35460000Y75370000D01*
X38200000Y79610000D02*
X37495000Y79610000D01*
X36165000Y79610000D02*
X35460000Y79610000D01*
X38200000Y75370000D02*
X37495000Y75370000D01*
X36165000Y75370000D02*
X35460000Y75370000D01*
X4415000Y54415000D02*
X3710000Y54415000D01*
X6450000Y54415000D02*
X5745000Y54415000D01*
X4415000Y58655000D02*
X3710000Y58655000D01*
X6450000Y58655000D02*
X5745000Y58655000D01*
X3710000Y58655000D02*
X3710000Y54415000D01*
X6450000Y58655000D02*
X6450000Y54415000D01*
X64870000Y102470000D02*
X64870000Y98230000D01*
X62130000Y102470000D02*
X62130000Y98230000D01*
X64870000Y102470000D02*
X64165000Y102470000D01*
X62835000Y102470000D02*
X62130000Y102470000D01*
X64870000Y98230000D02*
X64165000Y98230000D01*
X62835000Y98230000D02*
X62130000Y98230000D01*
X62835000Y75370000D02*
X62130000Y75370000D01*
X64870000Y75370000D02*
X64165000Y75370000D01*
X62835000Y79610000D02*
X62130000Y79610000D01*
X64870000Y79610000D02*
X64165000Y79610000D01*
X62130000Y79610000D02*
X62130000Y75370000D01*
X64870000Y79610000D02*
X64870000Y75370000D01*
X38200000Y58655000D02*
X38200000Y54415000D01*
X35460000Y58655000D02*
X35460000Y54415000D01*
X38200000Y58655000D02*
X37495000Y58655000D01*
X36165000Y58655000D02*
X35460000Y58655000D01*
X38200000Y54415000D02*
X37495000Y54415000D01*
X36165000Y54415000D02*
X35460000Y54415000D01*
X6450000Y42145000D02*
X6450000Y37905000D01*
X3710000Y42145000D02*
X3710000Y37905000D01*
X6450000Y42145000D02*
X5745000Y42145000D01*
X4415000Y42145000D02*
X3710000Y42145000D01*
X6450000Y37905000D02*
X5745000Y37905000D01*
X4415000Y37905000D02*
X3710000Y37905000D01*
X110460000Y54415000D02*
X109755000Y54415000D01*
X112495000Y54415000D02*
X111790000Y54415000D01*
X110460000Y58655000D02*
X109755000Y58655000D01*
X112495000Y58655000D02*
X111790000Y58655000D01*
X109755000Y58655000D02*
X109755000Y54415000D01*
X112495000Y58655000D02*
X112495000Y54415000D01*
X90905000Y30715000D02*
X90905000Y26475000D01*
X88165000Y30715000D02*
X88165000Y26475000D01*
X90905000Y30715000D02*
X90200000Y30715000D01*
X88870000Y30715000D02*
X88165000Y30715000D01*
X90905000Y26475000D02*
X90200000Y26475000D01*
X88870000Y26475000D02*
X88165000Y26475000D01*
X4415000Y75370000D02*
X3710000Y75370000D01*
X6450000Y75370000D02*
X5745000Y75370000D01*
X4415000Y79610000D02*
X3710000Y79610000D01*
X6450000Y79610000D02*
X5745000Y79610000D01*
X3710000Y79610000D02*
X3710000Y75370000D01*
X6450000Y79610000D02*
X6450000Y75370000D01*
X90905000Y102470000D02*
X90905000Y98230000D01*
X88165000Y102470000D02*
X88165000Y98230000D01*
X90905000Y102470000D02*
X90200000Y102470000D01*
X88870000Y102470000D02*
X88165000Y102470000D01*
X90905000Y98230000D02*
X90200000Y98230000D01*
X88870000Y98230000D02*
X88165000Y98230000D01*
X113000000Y98230000D02*
X112295000Y98230000D01*
X115035000Y98230000D02*
X114330000Y98230000D01*
X113000000Y102470000D02*
X112295000Y102470000D01*
X115035000Y102470000D02*
X114330000Y102470000D01*
X112295000Y102470000D02*
X112295000Y98230000D01*
X115035000Y102470000D02*
X115035000Y98230000D01*
X115035000Y79610000D02*
X115035000Y75370000D01*
X112295000Y79610000D02*
X112295000Y75370000D01*
X115035000Y79610000D02*
X114330000Y79610000D01*
X113000000Y79610000D02*
X112295000Y79610000D01*
X115035000Y75370000D02*
X114330000Y75370000D01*
X113000000Y75370000D02*
X112295000Y75370000D01*
X36165000Y98230000D02*
X35460000Y98230000D01*
X38200000Y98230000D02*
X37495000Y98230000D01*
X36165000Y102470000D02*
X35460000Y102470000D01*
X38200000Y102470000D02*
X37495000Y102470000D01*
X35460000Y102470000D02*
X35460000Y98230000D01*
X38200000Y102470000D02*
X38200000Y98230000D01*
X78205000Y58655000D02*
X78205000Y54415000D01*
X75465000Y58655000D02*
X75465000Y54415000D01*
X78205000Y58655000D02*
X77500000Y58655000D01*
X76170000Y58655000D02*
X75465000Y58655000D01*
X78205000Y54415000D02*
X77500000Y54415000D01*
X76170000Y54415000D02*
X75465000Y54415000D01*
X70520000Y28375000D02*
X70520000Y31315000D01*
X70280000Y28375000D02*
X70280000Y31315000D01*
X70400000Y28375000D02*
X70400000Y31315000D01*
X64840000Y29845000D02*
X65860000Y29845000D01*
X72320000Y29845000D02*
X71300000Y29845000D01*
X65860000Y28375000D02*
X71300000Y28375000D01*
X65860000Y31315000D02*
X65860000Y28375000D01*
X71300000Y31315000D02*
X65860000Y31315000D01*
X71300000Y28375000D02*
X71300000Y31315000D01*
X71300000Y35360000D02*
X71300000Y38300000D01*
X71300000Y38300000D02*
X65860000Y38300000D01*
X65860000Y38300000D02*
X65860000Y35360000D01*
X65860000Y35360000D02*
X71300000Y35360000D01*
X72320000Y36830000D02*
X71300000Y36830000D01*
X64840000Y36830000D02*
X65860000Y36830000D01*
X70400000Y35360000D02*
X70400000Y38300000D01*
X70280000Y35360000D02*
X70280000Y38300000D01*
X70520000Y35360000D02*
X70520000Y38300000D01*
X123920000Y87530000D02*
X123920000Y87860000D01*
X117380000Y87530000D02*
X123920000Y87530000D01*
X117380000Y87860000D02*
X117380000Y87530000D01*
X123920000Y90270000D02*
X123920000Y89940000D01*
X117380000Y90270000D02*
X123920000Y90270000D01*
X117380000Y89940000D02*
X117380000Y90270000D01*
X102810000Y121345000D02*
X104140000Y121345000D01*
X102810000Y120015000D02*
X102810000Y121345000D01*
X102810000Y118745000D02*
X105470000Y118745000D01*
X105470000Y118745000D02*
X105470000Y113605000D01*
X102810000Y118745000D02*
X102810000Y113605000D01*
X102810000Y113605000D02*
X105470000Y113605000D01*
X107890000Y113605000D02*
X110550000Y113605000D01*
X107890000Y118745000D02*
X107890000Y113605000D01*
X110550000Y118745000D02*
X110550000Y113605000D01*
X107890000Y118745000D02*
X110550000Y118745000D01*
X107890000Y120015000D02*
X107890000Y121345000D01*
X107890000Y121345000D02*
X109220000Y121345000D01*
X91380000Y99330000D02*
X91380000Y98080000D01*
X91380000Y98080000D02*
X109280000Y98080000D01*
X109280000Y98080000D02*
X109280000Y102580000D01*
X109280000Y102580000D02*
X91380000Y102580000D01*
X91380000Y102580000D02*
X91380000Y101330000D01*
X91380000Y101330000D02*
G75*
G02*
X91380000Y99330000I0J-1000000D01*
G01*
X115510000Y79720000D02*
X115510000Y78470000D01*
X133410000Y79720000D02*
X115510000Y79720000D01*
X133410000Y75220000D02*
X133410000Y79720000D01*
X115510000Y75220000D02*
X133410000Y75220000D01*
X115510000Y76470000D02*
X115510000Y75220000D01*
X115510000Y78470000D02*
G75*
G02*
X115510000Y76470000I0J-1000000D01*
G01*
X6925000Y99330000D02*
X6925000Y98080000D01*
X6925000Y98080000D02*
X32445000Y98080000D01*
X32445000Y98080000D02*
X32445000Y102580000D01*
X32445000Y102580000D02*
X6925000Y102580000D01*
X6925000Y102580000D02*
X6925000Y101330000D01*
X6925000Y101330000D02*
G75*
G02*
X6925000Y99330000I0J-1000000D01*
G01*
X91380000Y79720000D02*
X91380000Y78470000D01*
X109280000Y79720000D02*
X91380000Y79720000D01*
X109280000Y75220000D02*
X109280000Y79720000D01*
X91380000Y75220000D02*
X109280000Y75220000D01*
X91380000Y76470000D02*
X91380000Y75220000D01*
X91380000Y78470000D02*
G75*
G02*
X91380000Y76470000I0J-1000000D01*
G01*
X38675000Y76470000D02*
X38675000Y75220000D01*
X38675000Y75220000D02*
X59115000Y75220000D01*
X59115000Y75220000D02*
X59115000Y79720000D01*
X59115000Y79720000D02*
X38675000Y79720000D01*
X38675000Y79720000D02*
X38675000Y78470000D01*
X38675000Y78470000D02*
G75*
G02*
X38675000Y76470000I0J-1000000D01*
G01*
X6925000Y58765000D02*
X6925000Y57515000D01*
X27365000Y58765000D02*
X6925000Y58765000D01*
X27365000Y54265000D02*
X27365000Y58765000D01*
X6925000Y54265000D02*
X27365000Y54265000D01*
X6925000Y55515000D02*
X6925000Y54265000D01*
X6925000Y57515000D02*
G75*
G02*
X6925000Y55515000I0J-1000000D01*
G01*
X65345000Y99330000D02*
X65345000Y98080000D01*
X65345000Y98080000D02*
X85785000Y98080000D01*
X85785000Y98080000D02*
X85785000Y102580000D01*
X85785000Y102580000D02*
X65345000Y102580000D01*
X65345000Y102580000D02*
X65345000Y101330000D01*
X65345000Y101330000D02*
G75*
G02*
X65345000Y99330000I0J-1000000D01*
G01*
X65345000Y79720000D02*
X65345000Y78470000D01*
X85785000Y79720000D02*
X65345000Y79720000D01*
X85785000Y75220000D02*
X85785000Y79720000D01*
X65345000Y75220000D02*
X85785000Y75220000D01*
X65345000Y76470000D02*
X65345000Y75220000D01*
X65345000Y78470000D02*
G75*
G02*
X65345000Y76470000I0J-1000000D01*
G01*
X38675000Y55515000D02*
X38675000Y54265000D01*
X38675000Y54265000D02*
X59115000Y54265000D01*
X59115000Y54265000D02*
X59115000Y58765000D01*
X59115000Y58765000D02*
X38675000Y58765000D01*
X38675000Y58765000D02*
X38675000Y57515000D01*
X38675000Y57515000D02*
G75*
G02*
X38675000Y55515000I0J-1000000D01*
G01*
X112970000Y58765000D02*
X112970000Y57515000D01*
X133410000Y58765000D02*
X112970000Y58765000D01*
X133410000Y54265000D02*
X133410000Y58765000D01*
X112970000Y54265000D02*
X133410000Y54265000D01*
X112970000Y55515000D02*
X112970000Y54265000D01*
X112970000Y57515000D02*
G75*
G02*
X112970000Y55515000I0J-1000000D01*
G01*
X6925000Y42255000D02*
X6925000Y41005000D01*
X27365000Y42255000D02*
X6925000Y42255000D01*
X27365000Y37755000D02*
X27365000Y42255000D01*
X6925000Y37755000D02*
X27365000Y37755000D01*
X6925000Y39005000D02*
X6925000Y37755000D01*
X6925000Y41005000D02*
G75*
G02*
X6925000Y39005000I0J-1000000D01*
G01*
X91380000Y34635000D02*
X91380000Y29575000D01*
X132140000Y34635000D02*
X91380000Y34635000D01*
X132140000Y22515000D02*
X132140000Y34635000D01*
X91380000Y22515000D02*
X132140000Y22515000D01*
X91380000Y27575000D02*
X91380000Y22515000D01*
X91380000Y29575000D02*
G75*
G02*
X91380000Y27575000I0J-1000000D01*
G01*
X78680000Y55515000D02*
X78680000Y54265000D01*
X78680000Y54265000D02*
X96580000Y54265000D01*
X96580000Y54265000D02*
X96580000Y58765000D01*
X96580000Y58765000D02*
X78680000Y58765000D01*
X78680000Y58765000D02*
X78680000Y57515000D01*
X78680000Y57515000D02*
G75*
G02*
X78680000Y55515000I0J-1000000D01*
G01*
X6925000Y79720000D02*
X6925000Y78470000D01*
X32445000Y79720000D02*
X6925000Y79720000D01*
X32445000Y75220000D02*
X32445000Y79720000D01*
X6925000Y75220000D02*
X32445000Y75220000D01*
X6925000Y76470000D02*
X6925000Y75220000D01*
X6925000Y78470000D02*
G75*
G02*
X6925000Y76470000I0J-1000000D01*
G01*
X90905000Y79610000D02*
X90905000Y75370000D01*
X88165000Y79610000D02*
X88165000Y75370000D01*
X90905000Y79610000D02*
X90200000Y79610000D01*
X88870000Y79610000D02*
X88165000Y79610000D01*
X90905000Y75370000D02*
X90200000Y75370000D01*
X88870000Y75370000D02*
X88165000Y75370000D01*
X105950000Y44220000D02*
X105950000Y44550000D01*
X105950000Y44550000D02*
X112490000Y44550000D01*
X112490000Y44550000D02*
X112490000Y44220000D01*
X105950000Y42140000D02*
X105950000Y41810000D01*
X105950000Y41810000D02*
X112490000Y41810000D01*
X112490000Y41810000D02*
X112490000Y42140000D01*
X115510000Y99535000D02*
X115510000Y98285000D01*
X115510000Y98285000D02*
X133410000Y98285000D01*
X133410000Y98285000D02*
X133410000Y102785000D01*
X133410000Y102785000D02*
X115510000Y102785000D01*
X115510000Y102785000D02*
X115510000Y101535000D01*
X115510000Y101535000D02*
G75*
G02*
X115510000Y99535000I0J-1000000D01*
G01*
X38675000Y102580000D02*
X38675000Y101330000D01*
X56575000Y102580000D02*
X38675000Y102580000D01*
X56575000Y98080000D02*
X56575000Y102580000D01*
X38675000Y98080000D02*
X56575000Y98080000D01*
X38675000Y99330000D02*
X38675000Y98080000D01*
X38675000Y101330000D02*
G75*
G02*
X38675000Y99330000I0J-1000000D01*
G01*
D10*
X33647142Y124102858D02*
X33599523Y124055239D01*
X33456666Y124007620D01*
X33361428Y124007620D01*
X33218571Y124055239D01*
X33123333Y124150477D01*
X33075714Y124245715D01*
X33028095Y124436191D01*
X33028095Y124579048D01*
X33075714Y124769524D01*
X33123333Y124864762D01*
X33218571Y124960000D01*
X33361428Y125007620D01*
X33456666Y125007620D01*
X33599523Y124960000D01*
X33647142Y124912381D01*
X34599523Y124007620D02*
X34028095Y124007620D01*
X34313809Y124007620D02*
X34313809Y125007620D01*
X34218571Y124864762D01*
X34123333Y124769524D01*
X34028095Y124721905D01*
X35170952Y124579048D02*
X35075714Y124626667D01*
X35028095Y124674286D01*
X34980476Y124769524D01*
X34980476Y124817143D01*
X35028095Y124912381D01*
X35075714Y124960000D01*
X35170952Y125007620D01*
X35361428Y125007620D01*
X35456666Y124960000D01*
X35504285Y124912381D01*
X35551904Y124817143D01*
X35551904Y124769524D01*
X35504285Y124674286D01*
X35456666Y124626667D01*
X35361428Y124579048D01*
X35170952Y124579048D01*
X35075714Y124531429D01*
X35028095Y124483810D01*
X34980476Y124388572D01*
X34980476Y124198096D01*
X35028095Y124102858D01*
X35075714Y124055239D01*
X35170952Y124007620D01*
X35361428Y124007620D01*
X35456666Y124055239D01*
X35504285Y124102858D01*
X35551904Y124198096D01*
X35551904Y124388572D01*
X35504285Y124483810D01*
X35456666Y124531429D01*
X35361428Y124579048D01*
X62714285Y14186429D02*
X62857142Y14138810D01*
X62904761Y14091191D01*
X62952380Y13995953D01*
X62952380Y13853096D01*
X62904761Y13757858D01*
X62857142Y13710239D01*
X62761904Y13662620D01*
X62380952Y13662620D01*
X62380952Y14662620D01*
X62714285Y14662620D01*
X62809523Y14615000D01*
X62857142Y14567381D01*
X62904761Y14472143D01*
X62904761Y14376905D01*
X62857142Y14281667D01*
X62809523Y14234048D01*
X62714285Y14186429D01*
X62380952Y14186429D01*
X63238095Y14662620D02*
X63809523Y14662620D01*
X63523809Y13662620D02*
X63523809Y14662620D01*
X64666666Y13662620D02*
X64095238Y13662620D01*
X64380952Y13662620D02*
X64380952Y14662620D01*
X64285714Y14519762D01*
X64190476Y14424524D01*
X64095238Y14376905D01*
X60178571Y18307858D02*
X61321428Y18307858D01*
X60750000Y17736429D02*
X60750000Y18879286D01*
X4913333Y103147858D02*
X4865714Y103100239D01*
X4722857Y103052620D01*
X4627619Y103052620D01*
X4484761Y103100239D01*
X4389523Y103195477D01*
X4341904Y103290715D01*
X4294285Y103481191D01*
X4294285Y103624048D01*
X4341904Y103814524D01*
X4389523Y103909762D01*
X4484761Y104005000D01*
X4627619Y104052620D01*
X4722857Y104052620D01*
X4865714Y104005000D01*
X4913333Y103957381D01*
X5770476Y104052620D02*
X5580000Y104052620D01*
X5484761Y104005000D01*
X5437142Y103957381D01*
X5341904Y103814524D01*
X5294285Y103624048D01*
X5294285Y103243096D01*
X5341904Y103147858D01*
X5389523Y103100239D01*
X5484761Y103052620D01*
X5675238Y103052620D01*
X5770476Y103100239D01*
X5818095Y103147858D01*
X5865714Y103243096D01*
X5865714Y103481191D01*
X5818095Y103576429D01*
X5770476Y103624048D01*
X5675238Y103671667D01*
X5484761Y103671667D01*
X5389523Y103624048D01*
X5341904Y103576429D01*
X5294285Y103481191D01*
X130147142Y91042858D02*
X130099523Y90995239D01*
X129956666Y90947620D01*
X129861428Y90947620D01*
X129718571Y90995239D01*
X129623333Y91090477D01*
X129575714Y91185715D01*
X129528095Y91376191D01*
X129528095Y91519048D01*
X129575714Y91709524D01*
X129623333Y91804762D01*
X129718571Y91900000D01*
X129861428Y91947620D01*
X129956666Y91947620D01*
X130099523Y91900000D01*
X130147142Y91852381D01*
X131099523Y90947620D02*
X130528095Y90947620D01*
X130813809Y90947620D02*
X130813809Y91947620D01*
X130718571Y91804762D01*
X130623333Y91709524D01*
X130528095Y91661905D01*
X131432857Y91947620D02*
X132099523Y91947620D01*
X131670952Y90947620D01*
X36028333Y80287858D02*
X35980714Y80240239D01*
X35837857Y80192620D01*
X35742619Y80192620D01*
X35599761Y80240239D01*
X35504523Y80335477D01*
X35456904Y80430715D01*
X35409285Y80621191D01*
X35409285Y80764048D01*
X35456904Y80954524D01*
X35504523Y81049762D01*
X35599761Y81145000D01*
X35742619Y81192620D01*
X35837857Y81192620D01*
X35980714Y81145000D01*
X36028333Y81097381D01*
X36361666Y81192620D02*
X37028333Y81192620D01*
X36599761Y80192620D01*
X4913333Y59332858D02*
X4865714Y59285239D01*
X4722857Y59237620D01*
X4627619Y59237620D01*
X4484761Y59285239D01*
X4389523Y59380477D01*
X4341904Y59475715D01*
X4294285Y59666191D01*
X4294285Y59809048D01*
X4341904Y59999524D01*
X4389523Y60094762D01*
X4484761Y60190000D01*
X4627619Y60237620D01*
X4722857Y60237620D01*
X4865714Y60190000D01*
X4913333Y60142381D01*
X5484761Y59809048D02*
X5389523Y59856667D01*
X5341904Y59904286D01*
X5294285Y59999524D01*
X5294285Y60047143D01*
X5341904Y60142381D01*
X5389523Y60190000D01*
X5484761Y60237620D01*
X5675238Y60237620D01*
X5770476Y60190000D01*
X5818095Y60142381D01*
X5865714Y60047143D01*
X5865714Y59999524D01*
X5818095Y59904286D01*
X5770476Y59856667D01*
X5675238Y59809048D01*
X5484761Y59809048D01*
X5389523Y59761429D01*
X5341904Y59713810D01*
X5294285Y59618572D01*
X5294285Y59428096D01*
X5341904Y59332858D01*
X5389523Y59285239D01*
X5484761Y59237620D01*
X5675238Y59237620D01*
X5770476Y59285239D01*
X5818095Y59332858D01*
X5865714Y59428096D01*
X5865714Y59618572D01*
X5818095Y59713810D01*
X5770476Y59761429D01*
X5675238Y59809048D01*
X63333333Y103147858D02*
X63285714Y103100239D01*
X63142857Y103052620D01*
X63047619Y103052620D01*
X62904761Y103100239D01*
X62809523Y103195477D01*
X62761904Y103290715D01*
X62714285Y103481191D01*
X62714285Y103624048D01*
X62761904Y103814524D01*
X62809523Y103909762D01*
X62904761Y104005000D01*
X63047619Y104052620D01*
X63142857Y104052620D01*
X63285714Y104005000D01*
X63333333Y103957381D01*
X63809523Y103052620D02*
X64000000Y103052620D01*
X64095238Y103100239D01*
X64142857Y103147858D01*
X64238095Y103290715D01*
X64285714Y103481191D01*
X64285714Y103862143D01*
X64238095Y103957381D01*
X64190476Y104005000D01*
X64095238Y104052620D01*
X63904761Y104052620D01*
X63809523Y104005000D01*
X63761904Y103957381D01*
X63714285Y103862143D01*
X63714285Y103624048D01*
X63761904Y103528810D01*
X63809523Y103481191D01*
X63904761Y103433572D01*
X64095238Y103433572D01*
X64190476Y103481191D01*
X64238095Y103528810D01*
X64285714Y103624048D01*
X62857142Y80287858D02*
X62809523Y80240239D01*
X62666666Y80192620D01*
X62571428Y80192620D01*
X62428571Y80240239D01*
X62333333Y80335477D01*
X62285714Y80430715D01*
X62238095Y80621191D01*
X62238095Y80764048D01*
X62285714Y80954524D01*
X62333333Y81049762D01*
X62428571Y81145000D01*
X62571428Y81192620D01*
X62666666Y81192620D01*
X62809523Y81145000D01*
X62857142Y81097381D01*
X63809523Y80192620D02*
X63238095Y80192620D01*
X63523809Y80192620D02*
X63523809Y81192620D01*
X63428571Y81049762D01*
X63333333Y80954524D01*
X63238095Y80906905D01*
X64428571Y81192620D02*
X64523809Y81192620D01*
X64619047Y81145000D01*
X64666666Y81097381D01*
X64714285Y81002143D01*
X64761904Y80811667D01*
X64761904Y80573572D01*
X64714285Y80383096D01*
X64666666Y80287858D01*
X64619047Y80240239D01*
X64523809Y80192620D01*
X64428571Y80192620D01*
X64333333Y80240239D01*
X64285714Y80287858D01*
X64238095Y80383096D01*
X64190476Y80573572D01*
X64190476Y80811667D01*
X64238095Y81002143D01*
X64285714Y81097381D01*
X64333333Y81145000D01*
X64428571Y81192620D01*
X36187142Y59332858D02*
X36139523Y59285239D01*
X35996666Y59237620D01*
X35901428Y59237620D01*
X35758571Y59285239D01*
X35663333Y59380477D01*
X35615714Y59475715D01*
X35568095Y59666191D01*
X35568095Y59809048D01*
X35615714Y59999524D01*
X35663333Y60094762D01*
X35758571Y60190000D01*
X35901428Y60237620D01*
X35996666Y60237620D01*
X36139523Y60190000D01*
X36187142Y60142381D01*
X37139523Y59237620D02*
X36568095Y59237620D01*
X36853809Y59237620D02*
X36853809Y60237620D01*
X36758571Y60094762D01*
X36663333Y59999524D01*
X36568095Y59951905D01*
X38091904Y59237620D02*
X37520476Y59237620D01*
X37806190Y59237620D02*
X37806190Y60237620D01*
X37710952Y60094762D01*
X37615714Y59999524D01*
X37520476Y59951905D01*
X3802142Y42822858D02*
X3754523Y42775239D01*
X3611666Y42727620D01*
X3516428Y42727620D01*
X3373571Y42775239D01*
X3278333Y42870477D01*
X3230714Y42965715D01*
X3183095Y43156191D01*
X3183095Y43299048D01*
X3230714Y43489524D01*
X3278333Y43584762D01*
X3373571Y43680000D01*
X3516428Y43727620D01*
X3611666Y43727620D01*
X3754523Y43680000D01*
X3802142Y43632381D01*
X4754523Y42727620D02*
X4183095Y42727620D01*
X4468809Y42727620D02*
X4468809Y43727620D01*
X4373571Y43584762D01*
X4278333Y43489524D01*
X4183095Y43441905D01*
X5087857Y43727620D02*
X5706904Y43727620D01*
X5373571Y43346667D01*
X5516428Y43346667D01*
X5611666Y43299048D01*
X5659285Y43251429D01*
X5706904Y43156191D01*
X5706904Y42918096D01*
X5659285Y42822858D01*
X5611666Y42775239D01*
X5516428Y42727620D01*
X5230714Y42727620D01*
X5135476Y42775239D01*
X5087857Y42822858D01*
X109847142Y59332858D02*
X109799523Y59285239D01*
X109656666Y59237620D01*
X109561428Y59237620D01*
X109418571Y59285239D01*
X109323333Y59380477D01*
X109275714Y59475715D01*
X109228095Y59666191D01*
X109228095Y59809048D01*
X109275714Y59999524D01*
X109323333Y60094762D01*
X109418571Y60190000D01*
X109561428Y60237620D01*
X109656666Y60237620D01*
X109799523Y60190000D01*
X109847142Y60142381D01*
X110799523Y59237620D02*
X110228095Y59237620D01*
X110513809Y59237620D02*
X110513809Y60237620D01*
X110418571Y60094762D01*
X110323333Y59999524D01*
X110228095Y59951905D01*
X111180476Y60142381D02*
X111228095Y60190000D01*
X111323333Y60237620D01*
X111561428Y60237620D01*
X111656666Y60190000D01*
X111704285Y60142381D01*
X111751904Y60047143D01*
X111751904Y59951905D01*
X111704285Y59809048D01*
X111132857Y59237620D01*
X111751904Y59237620D01*
X88892142Y31392858D02*
X88844523Y31345239D01*
X88701666Y31297620D01*
X88606428Y31297620D01*
X88463571Y31345239D01*
X88368333Y31440477D01*
X88320714Y31535715D01*
X88273095Y31726191D01*
X88273095Y31869048D01*
X88320714Y32059524D01*
X88368333Y32154762D01*
X88463571Y32250000D01*
X88606428Y32297620D01*
X88701666Y32297620D01*
X88844523Y32250000D01*
X88892142Y32202381D01*
X89844523Y31297620D02*
X89273095Y31297620D01*
X89558809Y31297620D02*
X89558809Y32297620D01*
X89463571Y32154762D01*
X89368333Y32059524D01*
X89273095Y32011905D01*
X90701666Y31964286D02*
X90701666Y31297620D01*
X90463571Y32345239D02*
X90225476Y31630953D01*
X90844523Y31630953D01*
X4437142Y80287858D02*
X4389523Y80240239D01*
X4246666Y80192620D01*
X4151428Y80192620D01*
X4008571Y80240239D01*
X3913333Y80335477D01*
X3865714Y80430715D01*
X3818095Y80621191D01*
X3818095Y80764048D01*
X3865714Y80954524D01*
X3913333Y81049762D01*
X4008571Y81145000D01*
X4151428Y81192620D01*
X4246666Y81192620D01*
X4389523Y81145000D01*
X4437142Y81097381D01*
X5389523Y80192620D02*
X4818095Y80192620D01*
X5103809Y80192620D02*
X5103809Y81192620D01*
X5008571Y81049762D01*
X4913333Y80954524D01*
X4818095Y80906905D01*
X6246666Y81192620D02*
X6056190Y81192620D01*
X5960952Y81145000D01*
X5913333Y81097381D01*
X5818095Y80954524D01*
X5770476Y80764048D01*
X5770476Y80383096D01*
X5818095Y80287858D01*
X5865714Y80240239D01*
X5960952Y80192620D01*
X6151428Y80192620D01*
X6246666Y80240239D01*
X6294285Y80287858D01*
X6341904Y80383096D01*
X6341904Y80621191D01*
X6294285Y80716429D01*
X6246666Y80764048D01*
X6151428Y80811667D01*
X5960952Y80811667D01*
X5865714Y80764048D01*
X5818095Y80716429D01*
X5770476Y80621191D01*
X88733333Y103147858D02*
X88685714Y103100239D01*
X88542857Y103052620D01*
X88447619Y103052620D01*
X88304761Y103100239D01*
X88209523Y103195477D01*
X88161904Y103290715D01*
X88114285Y103481191D01*
X88114285Y103624048D01*
X88161904Y103814524D01*
X88209523Y103909762D01*
X88304761Y104005000D01*
X88447619Y104052620D01*
X88542857Y104052620D01*
X88685714Y104005000D01*
X88733333Y103957381D01*
X89685714Y103052620D02*
X89114285Y103052620D01*
X89400000Y103052620D02*
X89400000Y104052620D01*
X89304761Y103909762D01*
X89209523Y103814524D01*
X89114285Y103766905D01*
X112863333Y103147858D02*
X112815714Y103100239D01*
X112672857Y103052620D01*
X112577619Y103052620D01*
X112434761Y103100239D01*
X112339523Y103195477D01*
X112291904Y103290715D01*
X112244285Y103481191D01*
X112244285Y103624048D01*
X112291904Y103814524D01*
X112339523Y103909762D01*
X112434761Y104005000D01*
X112577619Y104052620D01*
X112672857Y104052620D01*
X112815714Y104005000D01*
X112863333Y103957381D01*
X113244285Y103957381D02*
X113291904Y104005000D01*
X113387142Y104052620D01*
X113625238Y104052620D01*
X113720476Y104005000D01*
X113768095Y103957381D01*
X113815714Y103862143D01*
X113815714Y103766905D01*
X113768095Y103624048D01*
X113196666Y103052620D01*
X113815714Y103052620D01*
X113498333Y80287858D02*
X113450714Y80240239D01*
X113307857Y80192620D01*
X113212619Y80192620D01*
X113069761Y80240239D01*
X112974523Y80335477D01*
X112926904Y80430715D01*
X112879285Y80621191D01*
X112879285Y80764048D01*
X112926904Y80954524D01*
X112974523Y81049762D01*
X113069761Y81145000D01*
X113212619Y81192620D01*
X113307857Y81192620D01*
X113450714Y81145000D01*
X113498333Y81097381D01*
X114403095Y81192620D02*
X113926904Y81192620D01*
X113879285Y80716429D01*
X113926904Y80764048D01*
X114022142Y80811667D01*
X114260238Y80811667D01*
X114355476Y80764048D01*
X114403095Y80716429D01*
X114450714Y80621191D01*
X114450714Y80383096D01*
X114403095Y80287858D01*
X114355476Y80240239D01*
X114260238Y80192620D01*
X114022142Y80192620D01*
X113926904Y80240239D01*
X113879285Y80287858D01*
X36028333Y103147858D02*
X35980714Y103100239D01*
X35837857Y103052620D01*
X35742619Y103052620D01*
X35599761Y103100239D01*
X35504523Y103195477D01*
X35456904Y103290715D01*
X35409285Y103481191D01*
X35409285Y103624048D01*
X35456904Y103814524D01*
X35504523Y103909762D01*
X35599761Y104005000D01*
X35742619Y104052620D01*
X35837857Y104052620D01*
X35980714Y104005000D01*
X36028333Y103957381D01*
X36361666Y104052620D02*
X36980714Y104052620D01*
X36647380Y103671667D01*
X36790238Y103671667D01*
X36885476Y103624048D01*
X36933095Y103576429D01*
X36980714Y103481191D01*
X36980714Y103243096D01*
X36933095Y103147858D01*
X36885476Y103100239D01*
X36790238Y103052620D01*
X36504523Y103052620D01*
X36409285Y103100239D01*
X36361666Y103147858D01*
X75557142Y59332858D02*
X75509523Y59285239D01*
X75366666Y59237620D01*
X75271428Y59237620D01*
X75128571Y59285239D01*
X75033333Y59380477D01*
X74985714Y59475715D01*
X74938095Y59666191D01*
X74938095Y59809048D01*
X74985714Y59999524D01*
X75033333Y60094762D01*
X75128571Y60190000D01*
X75271428Y60237620D01*
X75366666Y60237620D01*
X75509523Y60190000D01*
X75557142Y60142381D01*
X76509523Y59237620D02*
X75938095Y59237620D01*
X76223809Y59237620D02*
X76223809Y60237620D01*
X76128571Y60094762D01*
X76033333Y59999524D01*
X75938095Y59951905D01*
X77414285Y60237620D02*
X76938095Y60237620D01*
X76890476Y59761429D01*
X76938095Y59809048D01*
X77033333Y59856667D01*
X77271428Y59856667D01*
X77366666Y59809048D01*
X77414285Y59761429D01*
X77461904Y59666191D01*
X77461904Y59428096D01*
X77414285Y59332858D01*
X77366666Y59285239D01*
X77271428Y59237620D01*
X77033333Y59237620D01*
X76938095Y59285239D01*
X76890476Y59332858D01*
X67841904Y26922620D02*
X67841904Y27922620D01*
X68080000Y27922620D01*
X68222857Y27875000D01*
X68318095Y27779762D01*
X68365714Y27684524D01*
X68413333Y27494048D01*
X68413333Y27351191D01*
X68365714Y27160715D01*
X68318095Y27065477D01*
X68222857Y26970239D01*
X68080000Y26922620D01*
X67841904Y26922620D01*
X69365714Y26922620D02*
X68794285Y26922620D01*
X69080000Y26922620D02*
X69080000Y27922620D01*
X68984761Y27779762D01*
X68889523Y27684524D01*
X68794285Y27636905D01*
X73398095Y27292620D02*
X73398095Y28292620D01*
X73969523Y27292620D02*
X73540952Y27864048D01*
X73969523Y28292620D02*
X73398095Y27721191D01*
X67841904Y33907620D02*
X67841904Y34907620D01*
X68080000Y34907620D01*
X68222857Y34860000D01*
X68318095Y34764762D01*
X68365714Y34669524D01*
X68413333Y34479048D01*
X68413333Y34336191D01*
X68365714Y34145715D01*
X68318095Y34050477D01*
X68222857Y33955239D01*
X68080000Y33907620D01*
X67841904Y33907620D01*
X68794285Y34812381D02*
X68841904Y34860000D01*
X68937142Y34907620D01*
X69175238Y34907620D01*
X69270476Y34860000D01*
X69318095Y34812381D01*
X69365714Y34717143D01*
X69365714Y34621905D01*
X69318095Y34479048D01*
X68746666Y33907620D01*
X69365714Y33907620D01*
X73398095Y34277620D02*
X73398095Y35277620D01*
X73969523Y34277620D02*
X73540952Y34849048D01*
X73969523Y35277620D02*
X73398095Y34706191D01*
X117943333Y90987620D02*
X117610000Y91463810D01*
X117371904Y90987620D02*
X117371904Y91987620D01*
X117752857Y91987620D01*
X117848095Y91940000D01*
X117895714Y91892381D01*
X117943333Y91797143D01*
X117943333Y91654286D01*
X117895714Y91559048D01*
X117848095Y91511429D01*
X117752857Y91463810D01*
X117371904Y91463810D01*
X118895714Y90987620D02*
X118324285Y90987620D01*
X118610000Y90987620D02*
X118610000Y91987620D01*
X118514761Y91844762D01*
X118419523Y91749524D01*
X118324285Y91701905D01*
X100838095Y117070239D02*
X100980952Y117022620D01*
X101219047Y117022620D01*
X101314285Y117070239D01*
X101361904Y117117858D01*
X101409523Y117213096D01*
X101409523Y117308334D01*
X101361904Y117403572D01*
X101314285Y117451191D01*
X101219047Y117498810D01*
X101028571Y117546429D01*
X100933333Y117594048D01*
X100885714Y117641667D01*
X100838095Y117736905D01*
X100838095Y117832143D01*
X100885714Y117927381D01*
X100933333Y117975000D01*
X101028571Y118022620D01*
X101266666Y118022620D01*
X101409523Y117975000D01*
X101790476Y117927381D02*
X101838095Y117975000D01*
X101933333Y118022620D01*
X102171428Y118022620D01*
X102266666Y117975000D01*
X102314285Y117927381D01*
X102361904Y117832143D01*
X102361904Y117736905D01*
X102314285Y117594048D01*
X101742857Y117022620D01*
X102361904Y117022620D01*
X105918095Y117070239D02*
X106060952Y117022620D01*
X106299047Y117022620D01*
X106394285Y117070239D01*
X106441904Y117117858D01*
X106489523Y117213096D01*
X106489523Y117308334D01*
X106441904Y117403572D01*
X106394285Y117451191D01*
X106299047Y117498810D01*
X106108571Y117546429D01*
X106013333Y117594048D01*
X105965714Y117641667D01*
X105918095Y117736905D01*
X105918095Y117832143D01*
X105965714Y117927381D01*
X106013333Y117975000D01*
X106108571Y118022620D01*
X106346666Y118022620D01*
X106489523Y117975000D01*
X107441904Y117022620D02*
X106870476Y117022620D01*
X107156190Y117022620D02*
X107156190Y118022620D01*
X107060952Y117879762D01*
X106965714Y117784524D01*
X106870476Y117736905D01*
X94488095Y107227620D02*
X94488095Y106418096D01*
X94535714Y106322858D01*
X94583333Y106275239D01*
X94678571Y106227620D01*
X94869047Y106227620D01*
X94964285Y106275239D01*
X95011904Y106322858D01*
X95059523Y106418096D01*
X95059523Y107227620D01*
X96059523Y106227620D02*
X95488095Y106227620D01*
X95773809Y106227620D02*
X95773809Y107227620D01*
X95678571Y107084762D01*
X95583333Y106989524D01*
X95488095Y106941905D01*
X119888095Y84367620D02*
X119888095Y83558096D01*
X119935714Y83462858D01*
X119983333Y83415239D01*
X120078571Y83367620D01*
X120269047Y83367620D01*
X120364285Y83415239D01*
X120411904Y83462858D01*
X120459523Y83558096D01*
X120459523Y84367620D01*
X121411904Y84367620D02*
X120935714Y84367620D01*
X120888095Y83891429D01*
X120935714Y83939048D01*
X121030952Y83986667D01*
X121269047Y83986667D01*
X121364285Y83939048D01*
X121411904Y83891429D01*
X121459523Y83796191D01*
X121459523Y83558096D01*
X121411904Y83462858D01*
X121364285Y83415239D01*
X121269047Y83367620D01*
X121030952Y83367620D01*
X120935714Y83415239D01*
X120888095Y83462858D01*
X13843095Y107227620D02*
X13843095Y106418096D01*
X13890714Y106322858D01*
X13938333Y106275239D01*
X14033571Y106227620D01*
X14224047Y106227620D01*
X14319285Y106275239D01*
X14366904Y106322858D01*
X14414523Y106418096D01*
X14414523Y107227620D01*
X15319285Y107227620D02*
X15128809Y107227620D01*
X15033571Y107180000D01*
X14985952Y107132381D01*
X14890714Y106989524D01*
X14843095Y106799048D01*
X14843095Y106418096D01*
X14890714Y106322858D01*
X14938333Y106275239D01*
X15033571Y106227620D01*
X15224047Y106227620D01*
X15319285Y106275239D01*
X15366904Y106322858D01*
X15414523Y106418096D01*
X15414523Y106656191D01*
X15366904Y106751429D01*
X15319285Y106799048D01*
X15224047Y106846667D01*
X15033571Y106846667D01*
X14938333Y106799048D01*
X14890714Y106751429D01*
X14843095Y106656191D01*
X95758095Y84367620D02*
X95758095Y83558096D01*
X95805714Y83462858D01*
X95853333Y83415239D01*
X95948571Y83367620D01*
X96139047Y83367620D01*
X96234285Y83415239D01*
X96281904Y83462858D01*
X96329523Y83558096D01*
X96329523Y84367620D01*
X97234285Y84034286D02*
X97234285Y83367620D01*
X96996190Y84415239D02*
X96758095Y83700953D01*
X97377142Y83700953D01*
X42418095Y84367620D02*
X42418095Y83558096D01*
X42465714Y83462858D01*
X42513333Y83415239D01*
X42608571Y83367620D01*
X42799047Y83367620D01*
X42894285Y83415239D01*
X42941904Y83462858D01*
X42989523Y83558096D01*
X42989523Y84367620D01*
X43370476Y84367620D02*
X44037142Y84367620D01*
X43608571Y83367620D01*
X11303095Y63412620D02*
X11303095Y62603096D01*
X11350714Y62507858D01*
X11398333Y62460239D01*
X11493571Y62412620D01*
X11684047Y62412620D01*
X11779285Y62460239D01*
X11826904Y62507858D01*
X11874523Y62603096D01*
X11874523Y63412620D01*
X12493571Y62984048D02*
X12398333Y63031667D01*
X12350714Y63079286D01*
X12303095Y63174524D01*
X12303095Y63222143D01*
X12350714Y63317381D01*
X12398333Y63365000D01*
X12493571Y63412620D01*
X12684047Y63412620D01*
X12779285Y63365000D01*
X12826904Y63317381D01*
X12874523Y63222143D01*
X12874523Y63174524D01*
X12826904Y63079286D01*
X12779285Y63031667D01*
X12684047Y62984048D01*
X12493571Y62984048D01*
X12398333Y62936429D01*
X12350714Y62888810D01*
X12303095Y62793572D01*
X12303095Y62603096D01*
X12350714Y62507858D01*
X12398333Y62460239D01*
X12493571Y62412620D01*
X12684047Y62412620D01*
X12779285Y62460239D01*
X12826904Y62507858D01*
X12874523Y62603096D01*
X12874523Y62793572D01*
X12826904Y62888810D01*
X12779285Y62936429D01*
X12684047Y62984048D01*
X70358095Y107227620D02*
X70358095Y106418096D01*
X70405714Y106322858D01*
X70453333Y106275239D01*
X70548571Y106227620D01*
X70739047Y106227620D01*
X70834285Y106275239D01*
X70881904Y106322858D01*
X70929523Y106418096D01*
X70929523Y107227620D01*
X71453333Y106227620D02*
X71643809Y106227620D01*
X71739047Y106275239D01*
X71786666Y106322858D01*
X71881904Y106465715D01*
X71929523Y106656191D01*
X71929523Y107037143D01*
X71881904Y107132381D01*
X71834285Y107180000D01*
X71739047Y107227620D01*
X71548571Y107227620D01*
X71453333Y107180000D01*
X71405714Y107132381D01*
X71358095Y107037143D01*
X71358095Y106799048D01*
X71405714Y106703810D01*
X71453333Y106656191D01*
X71548571Y106608572D01*
X71739047Y106608572D01*
X71834285Y106656191D01*
X71881904Y106703810D01*
X71929523Y106799048D01*
X68611904Y84367620D02*
X68611904Y83558096D01*
X68659523Y83462858D01*
X68707142Y83415239D01*
X68802380Y83367620D01*
X68992857Y83367620D01*
X69088095Y83415239D01*
X69135714Y83462858D01*
X69183333Y83558096D01*
X69183333Y84367620D01*
X70183333Y83367620D02*
X69611904Y83367620D01*
X69897619Y83367620D02*
X69897619Y84367620D01*
X69802380Y84224762D01*
X69707142Y84129524D01*
X69611904Y84081905D01*
X70802380Y84367620D02*
X70897619Y84367620D01*
X70992857Y84320000D01*
X71040476Y84272381D01*
X71088095Y84177143D01*
X71135714Y83986667D01*
X71135714Y83748572D01*
X71088095Y83558096D01*
X71040476Y83462858D01*
X70992857Y83415239D01*
X70897619Y83367620D01*
X70802380Y83367620D01*
X70707142Y83415239D01*
X70659523Y83462858D01*
X70611904Y83558096D01*
X70564285Y83748572D01*
X70564285Y83986667D01*
X70611904Y84177143D01*
X70659523Y84272381D01*
X70707142Y84320000D01*
X70802380Y84367620D01*
X43211904Y64047620D02*
X43211904Y63238096D01*
X43259523Y63142858D01*
X43307142Y63095239D01*
X43402380Y63047620D01*
X43592857Y63047620D01*
X43688095Y63095239D01*
X43735714Y63142858D01*
X43783333Y63238096D01*
X43783333Y64047620D01*
X44783333Y63047620D02*
X44211904Y63047620D01*
X44497619Y63047620D02*
X44497619Y64047620D01*
X44402380Y63904762D01*
X44307142Y63809524D01*
X44211904Y63761905D01*
X45735714Y63047620D02*
X45164285Y63047620D01*
X45450000Y63047620D02*
X45450000Y64047620D01*
X45354761Y63904762D01*
X45259523Y63809524D01*
X45164285Y63761905D01*
X118141904Y63412620D02*
X118141904Y62603096D01*
X118189523Y62507858D01*
X118237142Y62460239D01*
X118332380Y62412620D01*
X118522857Y62412620D01*
X118618095Y62460239D01*
X118665714Y62507858D01*
X118713333Y62603096D01*
X118713333Y63412620D01*
X119713333Y62412620D02*
X119141904Y62412620D01*
X119427619Y62412620D02*
X119427619Y63412620D01*
X119332380Y63269762D01*
X119237142Y63174524D01*
X119141904Y63126905D01*
X120094285Y63317381D02*
X120141904Y63365000D01*
X120237142Y63412620D01*
X120475238Y63412620D01*
X120570476Y63365000D01*
X120618095Y63317381D01*
X120665714Y63222143D01*
X120665714Y63126905D01*
X120618095Y62984048D01*
X120046666Y62412620D01*
X120665714Y62412620D01*
X12096904Y46902620D02*
X12096904Y46093096D01*
X12144523Y45997858D01*
X12192142Y45950239D01*
X12287380Y45902620D01*
X12477857Y45902620D01*
X12573095Y45950239D01*
X12620714Y45997858D01*
X12668333Y46093096D01*
X12668333Y46902620D01*
X13668333Y45902620D02*
X13096904Y45902620D01*
X13382619Y45902620D02*
X13382619Y46902620D01*
X13287380Y46759762D01*
X13192142Y46664524D01*
X13096904Y46616905D01*
X14001666Y46902620D02*
X14620714Y46902620D01*
X14287380Y46521667D01*
X14430238Y46521667D01*
X14525476Y46474048D01*
X14573095Y46426429D01*
X14620714Y46331191D01*
X14620714Y46093096D01*
X14573095Y45997858D01*
X14525476Y45950239D01*
X14430238Y45902620D01*
X14144523Y45902620D01*
X14049285Y45950239D01*
X14001666Y45997858D01*
X100996904Y39282620D02*
X100996904Y38473096D01*
X101044523Y38377858D01*
X101092142Y38330239D01*
X101187380Y38282620D01*
X101377857Y38282620D01*
X101473095Y38330239D01*
X101520714Y38377858D01*
X101568333Y38473096D01*
X101568333Y39282620D01*
X102568333Y38282620D02*
X101996904Y38282620D01*
X102282619Y38282620D02*
X102282619Y39282620D01*
X102187380Y39139762D01*
X102092142Y39044524D01*
X101996904Y38996905D01*
X103425476Y38949286D02*
X103425476Y38282620D01*
X103187380Y39330239D02*
X102949285Y38615953D01*
X103568333Y38615953D01*
X82581904Y64047620D02*
X82581904Y63238096D01*
X82629523Y63142858D01*
X82677142Y63095239D01*
X82772380Y63047620D01*
X82962857Y63047620D01*
X83058095Y63095239D01*
X83105714Y63142858D01*
X83153333Y63238096D01*
X83153333Y64047620D01*
X84153333Y63047620D02*
X83581904Y63047620D01*
X83867619Y63047620D02*
X83867619Y64047620D01*
X83772380Y63904762D01*
X83677142Y63809524D01*
X83581904Y63761905D01*
X85058095Y64047620D02*
X84581904Y64047620D01*
X84534285Y63571429D01*
X84581904Y63619048D01*
X84677142Y63666667D01*
X84915238Y63666667D01*
X85010476Y63619048D01*
X85058095Y63571429D01*
X85105714Y63476191D01*
X85105714Y63238096D01*
X85058095Y63142858D01*
X85010476Y63095239D01*
X84915238Y63047620D01*
X84677142Y63047620D01*
X84581904Y63095239D01*
X84534285Y63142858D01*
X14001904Y84367620D02*
X14001904Y83558096D01*
X14049523Y83462858D01*
X14097142Y83415239D01*
X14192380Y83367620D01*
X14382857Y83367620D01*
X14478095Y83415239D01*
X14525714Y83462858D01*
X14573333Y83558096D01*
X14573333Y84367620D01*
X15573333Y83367620D02*
X15001904Y83367620D01*
X15287619Y83367620D02*
X15287619Y84367620D01*
X15192380Y84224762D01*
X15097142Y84129524D01*
X15001904Y84081905D01*
X16430476Y84367620D02*
X16240000Y84367620D01*
X16144761Y84320000D01*
X16097142Y84272381D01*
X16001904Y84129524D01*
X15954285Y83939048D01*
X15954285Y83558096D01*
X16001904Y83462858D01*
X16049523Y83415239D01*
X16144761Y83367620D01*
X16335238Y83367620D01*
X16430476Y83415239D01*
X16478095Y83462858D01*
X16525714Y83558096D01*
X16525714Y83796191D01*
X16478095Y83891429D01*
X16430476Y83939048D01*
X16335238Y83986667D01*
X16144761Y83986667D01*
X16049523Y83939048D01*
X16001904Y83891429D01*
X15954285Y83796191D01*
X89368333Y80287858D02*
X89320714Y80240239D01*
X89177857Y80192620D01*
X89082619Y80192620D01*
X88939761Y80240239D01*
X88844523Y80335477D01*
X88796904Y80430715D01*
X88749285Y80621191D01*
X88749285Y80764048D01*
X88796904Y80954524D01*
X88844523Y81049762D01*
X88939761Y81145000D01*
X89082619Y81192620D01*
X89177857Y81192620D01*
X89320714Y81145000D01*
X89368333Y81097381D01*
X90225476Y80859286D02*
X90225476Y80192620D01*
X89987380Y81240239D02*
X89749285Y80525953D01*
X90368333Y80525953D01*
X106513333Y45267620D02*
X106180000Y45743810D01*
X105941904Y45267620D02*
X105941904Y46267620D01*
X106322857Y46267620D01*
X106418095Y46220000D01*
X106465714Y46172381D01*
X106513333Y46077143D01*
X106513333Y45934286D01*
X106465714Y45839048D01*
X106418095Y45791429D01*
X106322857Y45743810D01*
X105941904Y45743810D01*
X106894285Y46172381D02*
X106941904Y46220000D01*
X107037142Y46267620D01*
X107275238Y46267620D01*
X107370476Y46220000D01*
X107418095Y46172381D01*
X107465714Y46077143D01*
X107465714Y45981905D01*
X107418095Y45839048D01*
X106846666Y45267620D01*
X107465714Y45267620D01*
X117348095Y107227619D02*
X117348095Y106418095D01*
X117395714Y106322857D01*
X117443333Y106275238D01*
X117538571Y106227619D01*
X117729047Y106227619D01*
X117824285Y106275238D01*
X117871904Y106322857D01*
X117919523Y106418095D01*
X117919523Y107227619D01*
X118348095Y107132380D02*
X118395714Y107179999D01*
X118490952Y107227619D01*
X118729047Y107227619D01*
X118824285Y107179999D01*
X118871904Y107132380D01*
X118919523Y107037142D01*
X118919523Y106941904D01*
X118871904Y106799047D01*
X118300476Y106227619D01*
X118919523Y106227619D01*
X41148095Y107227620D02*
X41148095Y106418096D01*
X41195714Y106322858D01*
X41243333Y106275239D01*
X41338571Y106227620D01*
X41529047Y106227620D01*
X41624285Y106275239D01*
X41671904Y106322858D01*
X41719523Y106418096D01*
X41719523Y107227620D01*
X42100476Y107227620D02*
X42719523Y107227620D01*
X42386190Y106846667D01*
X42529047Y106846667D01*
X42624285Y106799048D01*
X42671904Y106751429D01*
X42719523Y106656191D01*
X42719523Y106418096D01*
X42671904Y106322858D01*
X42624285Y106275239D01*
X42529047Y106227620D01*
X42243333Y106227620D01*
X42148095Y106275239D01*
X42100476Y106322858D01*
M02*
