M48
; DRILL file {KiCad (5.1.9)-1} date 01/25/26 14:50:00
; FORMAT={-:-/ absolute / metric / decimal}
; #@! TF.CreationDate,2026-01-25T14:50:00+09:00
; #@! TF.GenerationSoftware,Kicad,Pcbnew,(5.1.9)-1
FMAT,2
METRIC
T1C0.300
T2C0.800
T3C1.000
T4C1.100
T5C1.500
T6C3.200
%
G90
G05
T1
X13.317Y67.561
X20.27Y49.099
X20.408Y50.717
X22.241Y48.339
X23.167Y80.016
X24.765Y82.935
X29.264Y45.166
X30.361Y44.769
X34.309Y61.869
X34.364Y88.41
X34.988Y85.287
X34.988Y62.46
X35.662Y121.655
X37.149Y122.083
X37.867Y49.497
X38.566Y94.345
X40.622Y49.113
X42.54Y48.322
X43.461Y62.66
X51.265Y63.872
X51.27Y48.633
X56.261Y94.544
X56.515Y51.334
X58.588Y79.332
X60.325Y52.07
X60.907Y128.919
X63.548Y102.982
X64.41Y50.415
X67.945Y52.07
X74.93Y45.085
X76.789Y121.521
X79.147Y108.062
X79.837Y40.585
X80.12Y58.06
X80.811Y119.6
X82.314Y129.136
X83.037Y78.114
X85.262Y119.752
X85.273Y123.571
X85.273Y114.641
X85.978Y71.118
X86.874Y79.357
X88.152Y126.87
X88.436Y125.61
X88.465Y66.328
X89.255Y70.455
X94.147Y66.35
X94.922Y40.389
X96.859Y99.011
X101.062Y59.056
X101.198Y59.837
X103.345Y88.534
X105.41Y87.86
X109.318Y91.085
X114.205Y64.648
T2
X6.35Y101.6
X6.35Y99.1
X6.35Y78.74
X6.35Y76.24
X6.35Y57.785
X6.35Y55.285
X6.35Y41.275
X6.35Y38.775
X9.525Y104.14
X9.525Y96.52
X9.525Y81.28
X9.525Y73.66
X9.525Y60.325
X9.525Y52.705
X9.525Y43.815
X9.525Y36.195
X12.065Y104.14
X12.065Y96.52
X12.065Y81.28
X12.065Y73.66
X12.065Y60.325
X12.065Y52.705
X12.065Y43.815
X12.065Y36.195
X14.605Y104.14
X14.605Y96.52
X14.605Y81.28
X14.605Y73.66
X14.605Y60.325
X14.605Y52.705
X14.605Y43.815
X14.605Y36.195
X17.145Y104.14
X17.145Y96.52
X17.145Y81.28
X17.145Y73.66
X17.145Y60.325
X17.145Y52.705
X17.145Y43.815
X17.145Y36.195
X19.685Y104.14
X19.685Y96.52
X19.685Y81.28
X19.685Y73.66
X19.685Y60.325
X19.685Y52.705
X19.685Y43.815
X19.685Y36.195
X22.225Y104.14
X22.225Y96.52
X22.225Y81.28
X22.225Y73.66
X22.225Y60.325
X22.225Y52.705
X22.225Y43.815
X22.225Y36.195
X24.765Y104.14
X24.765Y96.52
X24.765Y81.28
X24.765Y73.66
X24.765Y60.325
X24.765Y52.705
X24.765Y43.815
X24.765Y36.195
X27.305Y104.14
X27.305Y96.52
X27.305Y81.28
X27.305Y73.66
X27.305Y60.325
X27.305Y52.705
X27.305Y43.815
X27.305Y36.195
X29.845Y104.14
X29.845Y96.52
X29.845Y81.28
X29.845Y73.66
X32.385Y104.14
X32.385Y96.52
X32.385Y81.28
X32.385Y73.66
X34.29Y121.539
X34.29Y119.039
X36.83Y101.6
X36.83Y99.1
X36.83Y78.74
X36.83Y76.24
X36.83Y57.785
X36.83Y55.285
X36.83Y41.275
X36.83Y38.775
X40.005Y104.14
X40.005Y96.52
X40.005Y81.28
X40.005Y73.66
X40.005Y60.325
X40.005Y52.705
X40.005Y43.752
X40.005Y36.132
X42.545Y104.14
X42.545Y96.52
X42.545Y81.28
X42.545Y73.66
X42.545Y60.325
X42.545Y52.705
X42.545Y43.752
X42.545Y36.132
X45.085Y104.14
X45.085Y96.52
X45.085Y81.28
X45.085Y73.66
X45.085Y60.325
X45.085Y52.705
X45.085Y43.752
X45.085Y36.132
X47.625Y104.14
X47.625Y96.52
X47.625Y81.28
X47.625Y73.66
X47.625Y60.325
X47.625Y52.705
X47.625Y43.752
X47.625Y36.132
X50.165Y104.14
X50.165Y96.52
X50.165Y81.28
X50.165Y73.66
X50.165Y60.325
X50.165Y52.705
X50.165Y43.752
X50.165Y36.132
X52.705Y104.14
X52.705Y96.52
X52.705Y81.28
X52.705Y73.66
X52.705Y60.325
X52.705Y52.705
X52.705Y43.752
X52.705Y36.132
X55.245Y104.14
X55.245Y96.52
X55.245Y81.28
X55.245Y73.66
X55.245Y60.325
X55.245Y52.705
X55.245Y43.752
X55.245Y36.132
X57.785Y81.28
X57.785Y73.66
X57.785Y60.325
X57.785Y52.705
X63.5Y101.6
X63.5Y99.1
X63.5Y78.74
X63.5Y76.24
X66.675Y104.14
X66.675Y96.52
X66.675Y81.28
X66.675Y73.66
X69.215Y104.14
X69.215Y96.52
X69.215Y81.28
X69.215Y73.66
X71.755Y104.14
X71.755Y96.52
X71.755Y81.28
X71.755Y73.66
X74.295Y104.14
X74.295Y96.52
X74.295Y81.28
X74.295Y73.66
X76.835Y104.14
X76.835Y96.52
X76.835Y81.28
X76.835Y73.66
X76.835Y57.785
X76.835Y55.285
X79.375Y104.14
X79.375Y96.52
X79.375Y81.28
X79.375Y73.66
X80.01Y60.325
X80.01Y52.705
X81.915Y104.14
X81.915Y96.52
X81.915Y81.28
X81.915Y73.66
X82.55Y60.325
X82.55Y52.705
X84.455Y104.14
X84.455Y96.52
X84.455Y81.28
X84.455Y73.66
X85.09Y60.325
X85.09Y52.705
X87.63Y60.325
X87.63Y52.705
X89.535Y101.6
X89.535Y99.1
X89.535Y78.74
X89.535Y76.24
X89.535Y29.845
X89.535Y27.345
X90.17Y60.325
X90.17Y52.705
X92.71Y104.14
X92.71Y96.52
X92.71Y81.28
X92.71Y73.66
X92.71Y60.325
X92.71Y52.705
X92.71Y43.18
X92.71Y36.195
X92.71Y20.955
X95.25Y104.14
X95.25Y96.52
X95.25Y81.28
X95.25Y73.66
X95.25Y60.325
X95.25Y52.705
X95.25Y36.195
X95.25Y20.955
X97.79Y104.14
X97.79Y96.52
X97.79Y81.28
X97.79Y73.66
X97.79Y36.195
X97.79Y20.955
X100.33Y104.14
X100.33Y96.52
X100.33Y81.28
X100.33Y73.66
X100.33Y43.18
X100.33Y36.195
X100.33Y20.955
X102.87Y104.14
X102.87Y96.52
X102.87Y81.28
X102.87Y73.66
X102.87Y36.195
X102.87Y20.955
X105.41Y104.14
X105.41Y96.52
X105.41Y81.28
X105.41Y73.66
X105.41Y43.18
X105.41Y36.195
X105.41Y20.955
X107.95Y104.14
X107.95Y96.52
X107.95Y81.28
X107.95Y73.66
X107.95Y36.195
X107.95Y20.955
X109.855Y57.785
X109.855Y55.285
X110.49Y36.195
X110.49Y20.955
X112.395Y101.6
X112.395Y99.1
X112.395Y78.74
X112.395Y76.24
X113.03Y60.325
X113.03Y52.705
X113.03Y43.18
X113.03Y36.195
X113.03Y20.955
X115.57Y104.345
X115.57Y96.725
X115.57Y88.9
X115.57Y81.28
X115.57Y73.66
X115.57Y60.325
X115.57Y52.705
X115.57Y36.195
X115.57Y20.955
X118.11Y104.345
X118.11Y96.725
X118.11Y81.28
X118.11Y73.66
X118.11Y60.325
X118.11Y52.705
X118.11Y36.195
X118.11Y20.955
X120.65Y104.345
X120.65Y96.725
X120.65Y81.28
X120.65Y73.66
X120.65Y60.325
X120.65Y52.705
X120.65Y36.195
X120.65Y20.955
X123.19Y104.345
X123.19Y96.725
X123.19Y88.9
X123.19Y81.28
X123.19Y73.66
X123.19Y60.325
X123.19Y52.705
X123.19Y36.195
X123.19Y20.955
X125.73Y104.345
X125.73Y96.725
X125.73Y81.28
X125.73Y73.66
X125.73Y60.325
X125.73Y52.705
X125.73Y36.195
X125.73Y20.955
X128.27Y104.345
X128.27Y96.725
X128.27Y88.9
X128.27Y81.28
X128.27Y73.66
X128.27Y60.325
X128.27Y52.705
X128.27Y36.195
X128.27Y20.955
X130.77Y88.9
X130.81Y104.345
X130.81Y96.725
X130.81Y81.28
X130.81Y73.66
X130.81Y60.325
X130.81Y52.705
X130.81Y36.195
X130.81Y20.955
T3
X69.85Y1.905
X72.39Y1.905
X74.93Y1.905
X104.14Y120.015
X104.14Y117.475
X104.14Y114.935
X109.22Y120.015
X109.22Y117.475
X109.22Y114.935
T4
X67.945Y33.655
X67.945Y26.035
X67.945Y19.05
X78.105Y33.655
X78.105Y26.035
X78.105Y19.05
T5
X34.12Y19.05
X54.61Y19.05
T6
X5.0Y125.0
X5.0Y5.0
X132.0Y125.0
X132.0Y5.0
T0
M30
