G04 #@! TF.GenerationSoftware,KiCad,Pcbnew,(5.1.9)-1*
G04 #@! TF.CreationDate,2026-01-25T14:49:58+09:00*
G04 #@! TF.ProjectId,X1_EMM,58315f45-4d4d-42e6-9b69-6361645f7063,rev?*
G04 #@! TF.SameCoordinates,PX1997c20PYbac5f70*
G04 #@! TF.FileFunction,Soldermask,Bot*
G04 #@! TF.FilePolarity,Negative*
%FSLAX46Y46*%
G04 Gerber Fmt 4.6, Leading zero omitted, Abs format (unit mm)*
G04 Created by KiCad (PCBNEW (5.1.9)-1) date 2026-01-25 14:49:58*
%MOMM*%
%LPD*%
G01*
G04 APERTURE LIST*
%ADD10C,3.200000*%
%ADD11R,1.780000X10.000000*%
%ADD12R,1.600000X1.600000*%
%ADD13C,1.600000*%
%ADD14C,3.000000*%
%ADD15R,3.000000X3.000000*%
%ADD16R,2.200000X2.200000*%
%ADD17O,2.200000X2.200000*%
%ADD18O,1.600000X1.600000*%
%ADD19R,1.700000X1.700000*%
%ADD20O,1.700000X1.700000*%
%ADD21O,1.600000X2.400000*%
%ADD22R,1.600000X2.400000*%
G04 APERTURE END LIST*
D10*
X5000000Y125000000D03*
X132000000Y125000000D03*
X132000000Y5000000D03*
X5000000Y5000000D03*
D11*
X34340000Y135116000D03*
X36880000Y135116000D03*
X39420000Y135116000D03*
X41960000Y135116000D03*
X44500000Y135116000D03*
X47040000Y135116000D03*
X49580000Y135116000D03*
X52120000Y135116000D03*
X54660000Y135116000D03*
X57200000Y135116000D03*
X59740000Y135116000D03*
X62280000Y135116000D03*
X64820000Y135116000D03*
X67360000Y135116000D03*
X69900000Y135116000D03*
X72440000Y135116000D03*
X74980000Y135116000D03*
X77520000Y135116000D03*
X80060000Y135116000D03*
X82600000Y135116000D03*
X85140000Y135116000D03*
X87680000Y135116000D03*
D12*
X34290000Y121539000D03*
D13*
X34290000Y119039000D03*
D14*
X34120000Y19050000D03*
D15*
X54610000Y19050000D03*
D13*
X6350000Y101600000D03*
X6350000Y99100000D03*
X128270000Y88900000D03*
X130770000Y88900000D03*
X36830000Y76240000D03*
X36830000Y78740000D03*
X6350000Y57785000D03*
X6350000Y55285000D03*
X63500000Y99100000D03*
X63500000Y101600000D03*
X63500000Y78740000D03*
X63500000Y76240000D03*
X36830000Y55285000D03*
X36830000Y57785000D03*
X6350000Y38775000D03*
X6350000Y41275000D03*
X109855000Y57785000D03*
X109855000Y55285000D03*
X89535000Y27345000D03*
X89535000Y29845000D03*
X6350000Y78740000D03*
X6350000Y76240000D03*
X89535000Y99100000D03*
X89535000Y101600000D03*
X112395000Y101600000D03*
X112395000Y99100000D03*
X112395000Y76240000D03*
X112395000Y78740000D03*
X36830000Y101600000D03*
X36830000Y99100000D03*
X76835000Y55285000D03*
X76835000Y57785000D03*
D16*
X78105000Y19050000D03*
D17*
X67945000Y19050000D03*
X67945000Y26035000D03*
D16*
X78105000Y26035000D03*
D13*
X115570000Y88900000D03*
D18*
X123190000Y88900000D03*
D19*
X104140000Y120015000D03*
D20*
X104140000Y117475000D03*
X104140000Y114935000D03*
X109220000Y114935000D03*
X109220000Y117475000D03*
D19*
X109220000Y120015000D03*
D21*
X92710000Y104140000D03*
X107950000Y96520000D03*
X95250000Y104140000D03*
X105410000Y96520000D03*
X97790000Y104140000D03*
X102870000Y96520000D03*
X100330000Y104140000D03*
X100330000Y96520000D03*
X102870000Y104140000D03*
X97790000Y96520000D03*
X105410000Y104140000D03*
X95250000Y96520000D03*
X107950000Y104140000D03*
D22*
X92710000Y96520000D03*
X115570000Y73660000D03*
D21*
X130810000Y81280000D03*
X118110000Y73660000D03*
X128270000Y81280000D03*
X120650000Y73660000D03*
X125730000Y81280000D03*
X123190000Y73660000D03*
X123190000Y81280000D03*
X125730000Y73660000D03*
X120650000Y81280000D03*
X128270000Y73660000D03*
X118110000Y81280000D03*
X130810000Y73660000D03*
X115570000Y81280000D03*
X9525000Y104140000D03*
X32385000Y96520000D03*
X12065000Y104140000D03*
X29845000Y96520000D03*
X14605000Y104140000D03*
X27305000Y96520000D03*
X17145000Y104140000D03*
X24765000Y96520000D03*
X19685000Y104140000D03*
X22225000Y96520000D03*
X22225000Y104140000D03*
X19685000Y96520000D03*
X24765000Y104140000D03*
X17145000Y96520000D03*
X27305000Y104140000D03*
X14605000Y96520000D03*
X29845000Y104140000D03*
X12065000Y96520000D03*
X32385000Y104140000D03*
D22*
X9525000Y96520000D03*
X92710000Y73660000D03*
D21*
X107950000Y81280000D03*
X95250000Y73660000D03*
X105410000Y81280000D03*
X97790000Y73660000D03*
X102870000Y81280000D03*
X100330000Y73660000D03*
X100330000Y81280000D03*
X102870000Y73660000D03*
X97790000Y81280000D03*
X105410000Y73660000D03*
X95250000Y81280000D03*
X107950000Y73660000D03*
X92710000Y81280000D03*
X40005000Y81280000D03*
X57785000Y73660000D03*
X42545000Y81280000D03*
X55245000Y73660000D03*
X45085000Y81280000D03*
X52705000Y73660000D03*
X47625000Y81280000D03*
X50165000Y73660000D03*
X50165000Y81280000D03*
X47625000Y73660000D03*
X52705000Y81280000D03*
X45085000Y73660000D03*
X55245000Y81280000D03*
X42545000Y73660000D03*
X57785000Y81280000D03*
D22*
X40005000Y73660000D03*
X9525000Y52705000D03*
D21*
X27305000Y60325000D03*
X12065000Y52705000D03*
X24765000Y60325000D03*
X14605000Y52705000D03*
X22225000Y60325000D03*
X17145000Y52705000D03*
X19685000Y60325000D03*
X19685000Y52705000D03*
X17145000Y60325000D03*
X22225000Y52705000D03*
X14605000Y60325000D03*
X24765000Y52705000D03*
X12065000Y60325000D03*
X27305000Y52705000D03*
X9525000Y60325000D03*
X66675000Y104140000D03*
X84455000Y96520000D03*
X69215000Y104140000D03*
X81915000Y96520000D03*
X71755000Y104140000D03*
X79375000Y96520000D03*
X74295000Y104140000D03*
X76835000Y96520000D03*
X76835000Y104140000D03*
X74295000Y96520000D03*
X79375000Y104140000D03*
X71755000Y96520000D03*
X81915000Y104140000D03*
X69215000Y96520000D03*
X84455000Y104140000D03*
D22*
X66675000Y96520000D03*
X66675000Y73660000D03*
D21*
X84455000Y81280000D03*
X69215000Y73660000D03*
X81915000Y81280000D03*
X71755000Y73660000D03*
X79375000Y81280000D03*
X74295000Y73660000D03*
X76835000Y81280000D03*
X76835000Y73660000D03*
X74295000Y81280000D03*
X79375000Y73660000D03*
X71755000Y81280000D03*
X81915000Y73660000D03*
X69215000Y81280000D03*
X84455000Y73660000D03*
X66675000Y81280000D03*
X40005000Y60325000D03*
X57785000Y52705000D03*
X42545000Y60325000D03*
X55245000Y52705000D03*
X45085000Y60325000D03*
X52705000Y52705000D03*
X47625000Y60325000D03*
X50165000Y52705000D03*
X50165000Y60325000D03*
X47625000Y52705000D03*
X52705000Y60325000D03*
X45085000Y52705000D03*
X55245000Y60325000D03*
X42545000Y52705000D03*
X57785000Y60325000D03*
D22*
X40005000Y52705000D03*
X113030000Y52705000D03*
D21*
X130810000Y60325000D03*
X115570000Y52705000D03*
X128270000Y60325000D03*
X118110000Y52705000D03*
X125730000Y60325000D03*
X120650000Y52705000D03*
X123190000Y60325000D03*
X123190000Y52705000D03*
X120650000Y60325000D03*
X125730000Y52705000D03*
X118110000Y60325000D03*
X128270000Y52705000D03*
X115570000Y60325000D03*
X130810000Y52705000D03*
X113030000Y60325000D03*
D22*
X9525000Y36195000D03*
D21*
X27305000Y43815000D03*
X12065000Y36195000D03*
X24765000Y43815000D03*
X14605000Y36195000D03*
X22225000Y43815000D03*
X17145000Y36195000D03*
X19685000Y43815000D03*
X19685000Y36195000D03*
X17145000Y43815000D03*
X22225000Y36195000D03*
X14605000Y43815000D03*
X24765000Y36195000D03*
X12065000Y43815000D03*
X27305000Y36195000D03*
X9525000Y43815000D03*
D22*
X92710000Y20955000D03*
D21*
X130810000Y36195000D03*
X95250000Y20955000D03*
X128270000Y36195000D03*
X97790000Y20955000D03*
X125730000Y36195000D03*
X100330000Y20955000D03*
X123190000Y36195000D03*
X102870000Y20955000D03*
X120650000Y36195000D03*
X105410000Y20955000D03*
X118110000Y36195000D03*
X107950000Y20955000D03*
X115570000Y36195000D03*
X110490000Y20955000D03*
X113030000Y36195000D03*
X113030000Y20955000D03*
X110490000Y36195000D03*
X115570000Y20955000D03*
X107950000Y36195000D03*
X118110000Y20955000D03*
X105410000Y36195000D03*
X120650000Y20955000D03*
X102870000Y36195000D03*
X123190000Y20955000D03*
X100330000Y36195000D03*
X125730000Y20955000D03*
X97790000Y36195000D03*
X128270000Y20955000D03*
X95250000Y36195000D03*
X130810000Y20955000D03*
X92710000Y36195000D03*
X80010000Y60325000D03*
X95250000Y52705000D03*
X82550000Y60325000D03*
X92710000Y52705000D03*
X85090000Y60325000D03*
X90170000Y52705000D03*
X87630000Y60325000D03*
X87630000Y52705000D03*
X90170000Y60325000D03*
X85090000Y52705000D03*
X92710000Y60325000D03*
X82550000Y52705000D03*
X95250000Y60325000D03*
D22*
X80010000Y52705000D03*
X9525000Y73660000D03*
D21*
X32385000Y81280000D03*
X12065000Y73660000D03*
X29845000Y81280000D03*
X14605000Y73660000D03*
X27305000Y81280000D03*
X17145000Y73660000D03*
X24765000Y81280000D03*
X19685000Y73660000D03*
X22225000Y81280000D03*
X22225000Y73660000D03*
X19685000Y81280000D03*
X24765000Y73660000D03*
X17145000Y81280000D03*
X27305000Y73660000D03*
X14605000Y81280000D03*
X29845000Y73660000D03*
X12065000Y81280000D03*
X32385000Y73660000D03*
X9525000Y81280000D03*
D13*
X89535000Y78740000D03*
X89535000Y76240000D03*
X105410000Y43180000D03*
D18*
X113030000Y43180000D03*
D22*
X115570000Y96725000D03*
D21*
X130810000Y104345000D03*
X118110000Y96725000D03*
X128270000Y104345000D03*
X120650000Y96725000D03*
X125730000Y104345000D03*
X123190000Y96725000D03*
X123190000Y104345000D03*
X125730000Y96725000D03*
X120650000Y104345000D03*
X128270000Y96725000D03*
X118110000Y104345000D03*
X130810000Y96725000D03*
X115570000Y104345000D03*
X40005000Y104140000D03*
X55245000Y96520000D03*
X42545000Y104140000D03*
X52705000Y96520000D03*
X45085000Y104140000D03*
X50165000Y96520000D03*
X47625000Y104140000D03*
X47625000Y96520000D03*
X50165000Y104140000D03*
X45085000Y96520000D03*
X52705000Y104140000D03*
X42545000Y96520000D03*
X55245000Y104140000D03*
D22*
X40005000Y96520000D03*
D13*
X36830000Y41275000D03*
X36830000Y38775000D03*
D16*
X78105000Y33655000D03*
D17*
X67945000Y33655000D03*
D13*
X92710000Y43180000D03*
D18*
X100330000Y43180000D03*
D22*
X40005000Y36132000D03*
D21*
X55245000Y43752000D03*
X42545000Y36132000D03*
X52705000Y43752000D03*
X45085000Y36132000D03*
X50165000Y43752000D03*
X47625000Y36132000D03*
X47625000Y43752000D03*
X50165000Y36132000D03*
X45085000Y43752000D03*
X52705000Y36132000D03*
X42545000Y43752000D03*
X55245000Y36132000D03*
X40005000Y43752000D03*
D19*
X69850000Y1905000D03*
D20*
X72390000Y1905000D03*
X74930000Y1905000D03*
M02*
